<?xml version="1.0" encoding="UTF-8"?>
<svg xmlns="http://www.w3.org/2000/svg" xmlns:xlink="http://www.w3.org/1999/xlink" width="595pt" height="842pt" viewBox="0 0 595 842" version="1.1">
<g id="surface11">
<path style=" stroke:none;fill-rule:evenodd;fill:rgb(0%,0%,0%);fill-opacity:1;" d="M 21.90625 45.929688 L 22.859375 48.710938 L 24.1875 48.710938 L 20.9375 39.476562 L 19.421875 39.476562 L 16.125 48.710938 L 17.375 48.710938 L 18.359375 45.929688 Z M 21.578125 44.945312 L 18.640625 44.945312 L 20.15625 40.742188 Z M 26.28125 39.476562 L 25.21875 39.476562 L 25.21875 48.710938 L 26.28125 48.710938 Z M 33.140625 44.304688 C 33.09375 43.648438 32.953125 43.242188 32.703125 42.867188 C 32.234375 42.242188 31.4375 41.882812 30.515625 41.882812 C 28.734375 41.882812 27.5625 43.304688 27.5625 45.507812 C 27.5625 47.648438 28.703125 49.007812 30.5 49.007812 C 32.09375 49.007812 33.09375 48.054688 33.21875 46.429688 L 32.15625 46.429688 C 31.96875 47.492188 31.421875 48.023438 30.53125 48.023438 C 29.359375 48.023438 28.671875 47.070312 28.671875 45.507812 C 28.671875 43.851562 29.34375 42.851562 30.5 42.851562 C 31.390625 42.851562 31.953125 43.382812 32.078125 44.304688 Z M 36.960938 41.882812 C 35.085938 41.882812 33.960938 43.210938 33.960938 45.445312 C 33.960938 47.664062 35.085938 49.007812 36.960938 49.007812 C 38.835938 49.007812 39.976562 47.664062 39.976562 45.492188 C 39.976562 43.195312 38.867188 41.882812 36.960938 41.882812 Z M 36.960938 42.851562 C 38.164062 42.851562 38.867188 43.835938 38.867188 45.476562 C 38.867188 47.039062 38.132812 48.023438 36.960938 48.023438 C 35.789062 48.023438 35.070312 47.054688 35.070312 45.445312 C 35.070312 43.851562 35.789062 42.851562 36.960938 42.851562 Z M 41.445312 39.476562 L 41.445312 48.710938 L 42.492188 48.710938 L 42.492188 45.054688 C 42.492188 43.695312 43.195312 42.804688 44.289062 42.804688 C 44.632812 42.804688 44.976562 42.914062 45.226562 43.117188 C 45.539062 43.320312 45.664062 43.648438 45.664062 44.117188 L 45.664062 48.710938 L 46.710938 48.710938 L 46.710938 43.695312 C 46.710938 42.570312 45.914062 41.882812 44.617188 41.882812 C 43.679688 41.882812 43.117188 42.179688 42.492188 42.976562 L 42.492188 39.476562 Z M 51.050781 41.882812 C 49.175781 41.882812 48.050781 43.210938 48.050781 45.445312 C 48.050781 47.664062 49.175781 49.007812 51.050781 49.007812 C 52.925781 49.007812 54.066406 47.664062 54.066406 45.492188 C 54.066406 43.195312 52.957031 41.882812 51.050781 41.882812 Z M 51.050781 42.851562 C 52.253906 42.851562 52.957031 43.835938 52.957031 45.476562 C 52.957031 47.039062 52.222656 48.023438 51.050781 48.023438 C 49.878906 48.023438 49.160156 47.054688 49.160156 45.445312 C 49.160156 43.851562 49.878906 42.851562 51.050781 42.851562 Z M 56.566406 39.476562 L 55.503906 39.476562 L 55.503906 48.710938 L 56.566406 48.710938 Z M 57.457031 48.710938 "/>
<path style=" stroke:none;fill-rule:evenodd;fill:rgb(0%,0%,0%);fill-opacity:1;" d="M 84.167969 46.445312 L 87.042969 46.445312 C 88.042969 46.445312 88.480469 46.929688 88.480469 48.007812 L 88.480469 48.789062 C 88.480469 49.320312 88.574219 49.851562 88.730469 50.210938 L 90.074219 50.210938 L 90.074219 49.929688 C 89.667969 49.648438 89.574219 49.335938 89.558594 48.164062 C 89.542969 46.726562 89.308594 46.304688 88.371094 45.898438 C 89.355469 45.414062 89.746094 44.804688 89.746094 43.804688 C 89.746094 42.289062 88.792969 41.460938 87.074219 41.460938 L 83.042969 41.460938 L 83.042969 50.210938 L 84.167969 50.210938 Z M 84.167969 45.460938 L 84.167969 42.445312 L 86.871094 42.445312 C 87.496094 42.445312 87.855469 42.539062 88.121094 42.789062 C 88.417969 43.039062 88.574219 43.429688 88.574219 43.960938 C 88.574219 44.992188 88.058594 45.460938 86.871094 45.460938 Z M 90.597656 50.210938 "/>
<path style="fill:none;stroke-width:0.749409;stroke-linecap:round;stroke-linejoin:round;stroke:rgb(0%,0%,0%);stroke-opacity:1;stroke-miterlimit:10;" d="M 91.429688 45.714844 L 111.273438 45.714844 "/>
<path style=" stroke:none;fill-rule:evenodd;fill:rgb(0%,0%,0%);fill-opacity:1;" d="M 123.683594 40.570312 C 121.167969 40.570312 119.464844 42.414062 119.464844 45.148438 C 119.464844 47.882812 121.167969 49.742188 123.699219 49.742188 C 124.746094 49.742188 125.699219 49.414062 126.402344 48.820312 C 127.355469 48.007812 127.917969 46.648438 127.917969 45.226562 C 127.917969 42.398438 126.246094 40.570312 123.683594 40.570312 Z M 123.683594 41.554688 C 125.574219 41.554688 126.792969 42.992188 126.792969 45.195312 C 126.792969 47.320312 125.542969 48.757812 123.699219 48.757812 C 121.824219 48.757812 120.589844 47.320312 120.589844 45.148438 C 120.589844 42.992188 121.824219 41.554688 123.683594 41.554688 Z M 134.957031 45.476562 L 134.957031 49.460938 L 136.082031 49.460938 L 136.082031 40.710938 L 134.957031 40.710938 L 134.957031 44.492188 L 130.457031 44.492188 L 130.457031 40.710938 L 129.347656 40.710938 L 129.347656 49.460938 L 130.472656 49.460938 L 130.472656 45.476562 Z M 137.011719 49.460938 "/>
<path style=" stroke:none;fill-rule:evenodd;fill:rgb(0%,0%,0%);fill-opacity:1;" d="M 18.027344 96.953125 L 18.964844 99.671875 L 20.246094 99.671875 L 17.074219 90.625 L 15.589844 90.625 L 12.355469 99.671875 L 13.589844 99.671875 L 14.542969 96.953125 Z M 17.714844 95.984375 L 14.839844 95.984375 L 16.324219 91.875 Z M 22.316406 90.625 L 21.269531 90.625 L 21.269531 99.671875 L 22.316406 99.671875 Z M 29.320312 90.625 L 28.289062 90.625 L 28.289062 93.984375 C 27.851562 93.328125 27.164062 92.984375 26.289062 92.984375 C 24.601562 92.984375 23.507812 94.34375 23.507812 96.40625 C 23.507812 98.609375 24.585938 99.953125 26.335938 99.953125 C 27.226562 99.953125 27.851562 99.625 28.398438 98.8125 L 28.398438 99.671875 L 29.320312 99.671875 Z M 26.460938 93.953125 C 27.585938 93.953125 28.289062 94.9375 28.289062 96.5 C 28.289062 98 27.570312 98.984375 26.476562 98.984375 C 25.335938 98.984375 24.585938 97.984375 24.585938 96.46875 C 24.585938 94.953125 25.335938 93.953125 26.460938 93.953125 Z M 36.4375 96.765625 C 36.4375 95.78125 36.375 95.1875 36.1875 94.703125 C 35.765625 93.625 34.765625 92.984375 33.546875 92.984375 C 31.734375 92.984375 30.578125 94.375 30.578125 96.515625 C 30.578125 98.640625 31.703125 99.953125 33.53125 99.953125 C 35.015625 99.953125 36.046875 99.109375 36.3125 97.703125 L 35.265625 97.703125 C 34.984375 98.5625 34.390625 99 33.5625 99 C 32.90625 99 32.34375 98.703125 32 98.15625 C 31.75 97.78125 31.671875 97.40625 31.65625 96.765625 Z M 31.671875 95.921875 C 31.765625 94.71875 32.5 93.9375 33.546875 93.9375 C 34.5625 93.9375 35.34375 94.78125 35.34375 95.84375 C 35.34375 95.875 35.34375 95.90625 35.328125 95.921875 Z M 37.851562 90.625 L 37.851562 99.671875 L 38.867188 99.671875 L 38.867188 96.09375 C 38.867188 94.765625 39.570312 93.890625 40.632812 93.890625 C 40.976562 93.890625 41.304688 94 41.554688 94.1875 C 41.851562 94.40625 41.976562 94.703125 41.976562 95.171875 L 41.976562 99.671875 L 43.007812 99.671875 L 43.007812 94.765625 C 43.007812 93.671875 42.226562 92.984375 40.960938 92.984375 C 40.039062 92.984375 39.476562 93.265625 38.867188 94.0625 L 38.867188 90.625 Z M 48.6875 93.171875 L 46.890625 98.234375 L 45.234375 93.171875 L 44.125 93.171875 L 46.3125 99.703125 L 45.921875 100.71875 C 45.765625 101.1875 45.53125 101.359375 45.09375 101.359375 C 44.9375 101.359375 44.765625 101.328125 44.546875 101.28125 L 44.546875 102.21875 C 44.75 102.328125 44.96875 102.375 45.234375 102.375 C 45.578125 102.375 45.9375 102.265625 46.203125 102.0625 C 46.53125 101.828125 46.71875 101.5625 46.921875 101.03125 L 49.8125 93.171875 Z M 56.21875 90.625 L 55.1875 90.625 L 55.1875 93.984375 C 54.75 93.328125 54.0625 92.984375 53.1875 92.984375 C 51.5 92.984375 50.40625 94.34375 50.40625 96.40625 C 50.40625 98.609375 51.484375 99.953125 53.234375 99.953125 C 54.125 99.953125 54.75 99.625 55.296875 98.8125 L 55.296875 99.671875 L 56.21875 99.671875 Z M 53.359375 93.953125 C 54.484375 93.953125 55.1875 94.9375 55.1875 96.5 C 55.1875 98 54.46875 98.984375 53.375 98.984375 C 52.234375 98.984375 51.484375 97.984375 51.484375 96.46875 C 51.484375 94.953125 52.234375 93.953125 53.359375 93.953125 Z M 63.335938 96.765625 C 63.335938 95.78125 63.273438 95.1875 63.085938 94.703125 C 62.664062 93.625 61.664062 92.984375 60.445312 92.984375 C 58.632812 92.984375 57.476562 94.375 57.476562 96.515625 C 57.476562 98.640625 58.601562 99.953125 60.429688 99.953125 C 61.914062 99.953125 62.945312 99.109375 63.210938 97.703125 L 62.164062 97.703125 C 61.882812 98.5625 61.289062 99 60.460938 99 C 59.804688 99 59.242188 98.703125 58.898438 98.15625 C 58.648438 97.78125 58.570312 97.40625 58.554688 96.765625 Z M 58.570312 95.921875 C 58.664062 94.71875 59.398438 93.9375 60.445312 93.9375 C 61.460938 93.9375 62.242188 94.78125 62.242188 95.84375 C 62.242188 95.875 62.242188 95.90625 62.226562 95.921875 Z M 63.875 99.671875 "/>
<path style=" stroke:none;fill-rule:evenodd;fill:rgb(0%,0%,0%);fill-opacity:1;" d="M 116.523438 75.042969 C 114.007812 75.042969 112.304688 76.886719 112.304688 79.621094 C 112.304688 82.355469 114.007812 84.214844 116.539062 84.214844 C 117.585938 84.214844 118.539062 83.886719 119.242188 83.292969 C 120.195312 82.480469 120.757812 81.121094 120.757812 79.699219 C 120.757812 76.871094 119.085938 75.042969 116.523438 75.042969 Z M 116.523438 76.027344 C 118.414062 76.027344 119.632812 77.464844 119.632812 79.667969 C 119.632812 81.792969 118.382812 83.230469 116.539062 83.230469 C 114.664062 83.230469 113.429688 81.792969 113.429688 79.621094 C 113.429688 77.464844 114.664062 76.027344 116.523438 76.027344 Z M 121.1875 83.933594 "/>
<path style="fill:none;stroke-width:0.749409;stroke-linecap:butt;stroke-linejoin:round;stroke:rgb(0%,0%,0%);stroke-opacity:1;stroke-miterlimit:10;" d="M 117.855469 85.84375 L 117.742188 105.6875 "/>
<path style="fill:none;stroke-width:0.749409;stroke-linecap:butt;stroke-linejoin:round;stroke:rgb(0%,0%,0%);stroke-opacity:1;stroke-miterlimit:10;" d="M 114.855469 85.828125 L 114.746094 105.671875 "/>
<path style=" stroke:none;fill-rule:evenodd;fill:rgb(0%,0%,0%);fill-opacity:1;" d="M 119.371094 116.121094 C 119.027344 114.199219 117.917969 113.261719 116.011719 113.261719 C 114.824219 113.261719 113.886719 113.636719 113.230469 114.355469 C 112.449219 115.214844 112.011719 116.464844 112.011719 117.886719 C 112.011719 119.324219 112.449219 120.558594 113.277344 121.402344 C 113.949219 122.105469 114.824219 122.433594 115.964844 122.433594 C 118.089844 122.433594 119.292969 121.277344 119.558594 118.964844 L 118.402344 118.964844 C 118.308594 119.558594 118.183594 119.964844 118.011719 120.308594 C 117.652344 121.042969 116.902344 121.449219 115.964844 121.449219 C 114.230469 121.449219 113.121094 120.058594 113.121094 117.871094 C 113.121094 115.621094 114.183594 114.246094 115.871094 114.246094 C 116.574219 114.246094 117.246094 114.464844 117.605469 114.792969 C 117.917969 115.089844 118.105469 115.464844 118.230469 116.121094 Z M 120.097656 122.152344 "/>
<path style="fill:none;stroke-width:0.749409;stroke-linecap:round;stroke-linejoin:round;stroke:rgb(0%,0%,0%);stroke-opacity:1;stroke-miterlimit:10;" d="M 95.925781 136.042969 L 110.261719 122.320312 "/>
<path style="fill:none;stroke-width:0.749409;stroke-linecap:round;stroke-linejoin:round;stroke:rgb(0%,0%,0%);stroke-opacity:1;stroke-miterlimit:10;" d="M 135.488281 136.179688 L 121.359375 122.246094 "/>
<path style=" stroke:none;fill-rule:evenodd;fill:rgb(0%,0%,0%);fill-opacity:1;" d="M 86.414062 150.613281 L 89.289062 150.613281 C 90.289062 150.613281 90.726562 151.097656 90.726562 152.175781 L 90.726562 152.957031 C 90.726562 153.488281 90.820312 154.019531 90.976562 154.378906 L 92.320312 154.378906 L 92.320312 154.097656 C 91.914062 153.816406 91.820312 153.503906 91.804688 152.332031 C 91.789062 150.894531 91.554688 150.472656 90.617188 150.066406 C 91.601562 149.582031 91.992188 148.972656 91.992188 147.972656 C 91.992188 146.457031 91.039062 145.628906 89.320312 145.628906 L 85.289062 145.628906 L 85.289062 154.378906 L 86.414062 154.378906 Z M 86.414062 149.628906 L 86.414062 146.613281 L 89.117188 146.613281 C 89.742188 146.613281 90.101562 146.707031 90.367188 146.957031 C 90.664062 147.207031 90.820312 147.597656 90.820312 148.128906 C 90.820312 149.160156 90.304688 149.628906 89.117188 149.628906 Z M 92.84375 154.378906 "/>
<path style=" stroke:none;fill-rule:evenodd;fill:rgb(0%,0%,0%);fill-opacity:1;" d="M 142.007812 148.894531 L 142.007812 152.878906 L 143.132812 152.878906 L 143.132812 144.128906 L 142.007812 144.128906 L 142.007812 147.910156 L 137.507812 147.910156 L 137.507812 144.128906 L 136.398438 144.128906 L 136.398438 152.878906 L 137.523438 152.878906 L 137.523438 148.894531 Z M 144.0625 152.878906 "/>
<path style=" stroke:none;fill-rule:evenodd;fill:rgb(0%,0%,0%);fill-opacity:1;" d="M 16.578125 202.605469 L 17.515625 205.339844 L 18.8125 205.339844 L 15.625 196.230469 L 14.125 196.230469 L 10.875 205.339844 L 12.109375 205.339844 L 13.0625 202.605469 Z M 16.25 201.621094 L 13.359375 201.621094 L 14.859375 197.480469 Z M 20.898438 196.230469 L 19.835938 196.230469 L 19.835938 205.339844 L 20.898438 205.339844 Z M 23.535156 196.230469 L 22.488281 196.230469 L 22.488281 205.339844 L 23.535156 205.339844 L 23.535156 202.792969 L 24.550781 201.792969 L 26.753906 205.339844 L 28.050781 205.339844 L 25.363281 201.058594 L 27.644531 198.792969 L 26.300781 198.792969 L 23.535156 201.558594 Z M 34.425781 202.417969 C 34.425781 201.417969 34.363281 200.808594 34.175781 200.324219 C 33.738281 199.246094 32.738281 198.605469 31.519531 198.605469 C 29.691406 198.605469 28.519531 199.996094 28.519531 202.152344 C 28.519531 204.308594 29.660156 205.621094 31.488281 205.621094 C 32.988281 205.621094 34.035156 204.777344 34.300781 203.355469 L 33.238281 203.355469 C 32.957031 204.214844 32.363281 204.667969 31.535156 204.667969 C 30.863281 204.667969 30.300781 204.371094 29.957031 203.808594 C 29.707031 203.433594 29.613281 203.058594 29.613281 202.417969 Z M 29.628906 201.558594 C 29.722656 200.355469 30.457031 199.558594 31.503906 199.558594 C 32.535156 199.558594 33.316406 200.417969 33.316406 201.496094 C 33.316406 201.511719 33.316406 201.542969 33.300781 201.558594 Z M 35.84375 198.792969 L 35.84375 205.339844 L 36.890625 205.339844 L 36.890625 201.730469 C 36.890625 200.386719 37.59375 199.511719 38.671875 199.511719 C 39.5 199.511719 40.015625 200.011719 40.015625 200.808594 L 40.015625 205.339844 L 41.0625 205.339844 L 41.0625 200.386719 C 41.0625 199.308594 40.25 198.605469 38.984375 198.605469 C 38 198.605469 37.375 198.980469 36.8125 199.886719 L 36.8125 198.792969 Z M 48.324219 202.417969 C 48.324219 201.417969 48.261719 200.808594 48.074219 200.324219 C 47.636719 199.246094 46.636719 198.605469 45.417969 198.605469 C 43.589844 198.605469 42.417969 199.996094 42.417969 202.152344 C 42.417969 204.308594 43.558594 205.621094 45.386719 205.621094 C 46.886719 205.621094 47.933594 204.777344 48.199219 203.355469 L 47.136719 203.355469 C 46.855469 204.214844 46.261719 204.667969 45.433594 204.667969 C 44.761719 204.667969 44.199219 204.371094 43.855469 203.808594 C 43.605469 203.433594 43.511719 203.058594 43.511719 202.417969 Z M 43.527344 201.558594 C 43.621094 200.355469 44.355469 199.558594 45.402344 199.558594 C 46.433594 199.558594 47.214844 200.417969 47.214844 201.496094 C 47.214844 201.511719 47.214844 201.542969 47.199219 201.558594 Z M 48.867188 205.339844 "/>
<path style=" stroke:none;fill-rule:evenodd;fill:rgb(0%,0%,0%);fill-opacity:1;" d="M 90.910156 198.574219 L 93.785156 198.574219 C 94.785156 198.574219 95.222656 199.058594 95.222656 200.136719 L 95.222656 200.917969 C 95.222656 201.449219 95.316406 201.980469 95.472656 202.339844 L 96.816406 202.339844 L 96.816406 202.058594 C 96.410156 201.777344 96.316406 201.464844 96.300781 200.292969 C 96.285156 198.855469 96.050781 198.433594 95.113281 198.027344 C 96.097656 197.542969 96.488281 196.933594 96.488281 195.933594 C 96.488281 194.417969 95.535156 193.589844 93.816406 193.589844 L 89.785156 193.589844 L 89.785156 202.339844 L 90.910156 202.339844 Z M 90.910156 197.589844 L 90.910156 194.574219 L 93.613281 194.574219 C 94.238281 194.574219 94.597656 194.667969 94.863281 194.917969 C 95.160156 195.167969 95.316406 195.558594 95.316406 196.089844 C 95.316406 197.121094 94.800781 197.589844 93.613281 197.589844 Z M 97.339844 202.339844 "/>
<path style="fill:none;stroke-width:0.749409;stroke-linecap:round;stroke-linejoin:round;stroke:rgb(0%,0%,0%);stroke-opacity:1;stroke-miterlimit:10;" d="M 98.382812 204.144531 L 116.191406 212.890625 "/>
<path style=" stroke:none;fill-rule:evenodd;fill:rgb(0%,0%,0%);fill-opacity:1;" d="M 90.160156 237.542969 L 93.035156 237.542969 C 94.035156 237.542969 94.472656 238.027344 94.472656 239.105469 L 94.472656 239.886719 C 94.472656 240.417969 94.566406 240.949219 94.722656 241.308594 L 96.066406 241.308594 L 96.066406 241.027344 C 95.660156 240.746094 95.566406 240.433594 95.550781 239.261719 C 95.535156 237.824219 95.300781 237.402344 94.363281 236.996094 C 95.347656 236.511719 95.738281 235.902344 95.738281 234.902344 C 95.738281 233.386719 94.785156 232.558594 93.066406 232.558594 L 89.035156 232.558594 L 89.035156 241.308594 L 90.160156 241.308594 Z M 90.160156 236.558594 L 90.160156 233.542969 L 92.863281 233.542969 C 93.488281 233.542969 93.847656 233.636719 94.113281 233.886719 C 94.410156 234.136719 94.566406 234.527344 94.566406 235.058594 C 94.566406 236.089844 94.050781 236.558594 92.863281 236.558594 Z M 96.589844 241.308594 "/>
<path style="fill:none;stroke-width:0.749409;stroke-linecap:round;stroke-linejoin:round;stroke:rgb(0%,0%,0%);stroke-opacity:1;stroke-miterlimit:10;" d="M 99.558594 229.84375 L 117.460938 221.328125 "/>
<path style=" stroke:none;fill-rule:evenodd;fill:rgb(0%,0%,0%);fill-opacity:1;" d="M 135.855469 215.792969 C 135.511719 213.871094 134.402344 212.933594 132.496094 212.933594 C 131.308594 212.933594 130.371094 213.308594 129.714844 214.027344 C 128.933594 214.886719 128.496094 216.136719 128.496094 217.558594 C 128.496094 218.996094 128.933594 220.230469 129.761719 221.074219 C 130.433594 221.777344 131.308594 222.105469 132.449219 222.105469 C 134.574219 222.105469 135.777344 220.949219 136.042969 218.636719 L 134.886719 218.636719 C 134.792969 219.230469 134.667969 219.636719 134.496094 219.980469 C 134.136719 220.714844 133.386719 221.121094 132.449219 221.121094 C 130.714844 221.121094 129.605469 219.730469 129.605469 217.542969 C 129.605469 215.292969 130.667969 213.917969 132.355469 213.917969 C 133.058594 213.917969 133.730469 214.136719 134.089844 214.464844 C 134.402344 214.761719 134.589844 215.136719 134.714844 215.792969 Z M 136.582031 221.824219 "/>
<path style="fill:none;stroke-width:0.749409;stroke-linecap:butt;stroke-linejoin:round;stroke:rgb(0%,0%,0%);stroke-opacity:1;stroke-miterlimit:10;" d="M 140.367188 214.542969 L 160.210938 214.6875 "/>
<path style="fill:none;stroke-width:0.749409;stroke-linecap:butt;stroke-linejoin:round;stroke:rgb(0%,0%,0%);stroke-opacity:1;stroke-miterlimit:10;" d="M 140.347656 217.542969 L 160.191406 217.683594 "/>
<path style=" stroke:none;fill-rule:evenodd;fill:rgb(0%,0%,0%);fill-opacity:1;" d="M 171.078125 215.042969 C 170.734375 213.121094 169.625 212.183594 167.71875 212.183594 C 166.53125 212.183594 165.59375 212.558594 164.9375 213.277344 C 164.15625 214.136719 163.71875 215.386719 163.71875 216.808594 C 163.71875 218.246094 164.15625 219.480469 164.984375 220.324219 C 165.65625 221.027344 166.53125 221.355469 167.671875 221.355469 C 169.796875 221.355469 171 220.199219 171.265625 217.886719 L 170.109375 217.886719 C 170.015625 218.480469 169.890625 218.886719 169.71875 219.230469 C 169.359375 219.964844 168.609375 220.371094 167.671875 220.371094 C 165.9375 220.371094 164.828125 218.980469 164.828125 216.792969 C 164.828125 214.542969 165.890625 213.167969 167.578125 213.167969 C 168.28125 213.167969 168.953125 213.386719 169.3125 213.714844 C 169.625 214.011719 169.8125 214.386719 169.9375 215.042969 Z M 171.804688 221.074219 "/>
<path style=" stroke:none;fill-rule:evenodd;fill:rgb(0%,0%,0%);fill-opacity:1;" d="M 203.324219 203.070312 L 206.199219 203.070312 C 207.199219 203.070312 207.636719 203.554688 207.636719 204.632812 L 207.636719 205.414062 C 207.636719 205.945312 207.730469 206.476562 207.886719 206.835938 L 209.230469 206.835938 L 209.230469 206.554688 C 208.824219 206.273438 208.730469 205.960938 208.714844 204.789062 C 208.699219 203.351562 208.464844 202.929688 207.527344 202.523438 C 208.511719 202.039062 208.902344 201.429688 208.902344 200.429688 C 208.902344 198.914062 207.949219 198.085938 206.230469 198.085938 L 202.199219 198.085938 L 202.199219 206.835938 L 203.324219 206.835938 Z M 203.324219 202.085938 L 203.324219 199.070312 L 206.027344 199.070312 C 206.652344 199.070312 207.011719 199.164062 207.277344 199.414062 C 207.574219 199.664062 207.730469 200.054688 207.730469 200.585938 C 207.730469 201.617188 207.214844 202.085938 206.027344 202.085938 Z M 209.753906 206.835938 "/>
<path style="fill:none;stroke-width:0.749409;stroke-linecap:round;stroke-linejoin:round;stroke:rgb(0%,0%,0%);stroke-opacity:1;stroke-miterlimit:10;" d="M 178.359375 214.332031 L 195.542969 204.410156 "/>
<path style=" stroke:none;fill-rule:evenodd;fill:rgb(0%,0%,0%);fill-opacity:1;" d="M 202.574219 238.292969 L 205.449219 238.292969 C 206.449219 238.292969 206.886719 238.777344 206.886719 239.855469 L 206.886719 240.636719 C 206.886719 241.167969 206.980469 241.699219 207.136719 242.058594 L 208.480469 242.058594 L 208.480469 241.777344 C 208.074219 241.496094 207.980469 241.183594 207.964844 240.011719 C 207.949219 238.574219 207.714844 238.152344 206.777344 237.746094 C 207.761719 237.261719 208.152344 236.652344 208.152344 235.652344 C 208.152344 234.136719 207.199219 233.308594 205.480469 233.308594 L 201.449219 233.308594 L 201.449219 242.058594 L 202.574219 242.058594 Z M 202.574219 237.308594 L 202.574219 234.292969 L 205.277344 234.292969 C 205.902344 234.292969 206.261719 234.386719 206.527344 234.636719 C 206.824219 234.886719 206.980469 235.277344 206.980469 235.808594 C 206.980469 236.839844 206.464844 237.308594 205.277344 237.308594 Z M 209.003906 242.058594 "/>
<path style="fill:none;stroke-width:0.749409;stroke-linecap:round;stroke-linejoin:round;stroke:rgb(0%,0%,0%);stroke-opacity:1;stroke-miterlimit:10;" d="M 176.859375 226.320312 L 194.042969 236.242188 "/>
<path style=" stroke:none;fill-rule:evenodd;fill:rgb(0%,0%,0%);fill-opacity:1;" d="M 18.074219 291.785156 L 19.011719 294.519531 L 20.308594 294.519531 L 17.105469 285.425781 L 15.605469 285.425781 L 12.371094 294.519531 L 13.605469 294.519531 L 14.558594 291.785156 Z M 17.746094 290.816406 L 14.855469 290.816406 L 16.339844 286.660156 Z M 22.371094 285.425781 L 21.324219 285.425781 L 21.324219 294.519531 L 22.371094 294.519531 Z M 25.015625 285.425781 L 23.96875 285.425781 L 23.96875 294.519531 L 25.015625 294.519531 L 25.015625 291.972656 L 26.015625 290.972656 L 28.234375 294.519531 L 29.515625 294.519531 L 26.84375 290.238281 L 29.125 287.972656 L 27.78125 287.972656 L 25.015625 290.753906 Z M 34.335938 287.972656 L 32.523438 293.066406 L 30.851562 287.972656 L 29.742188 287.972656 L 31.945312 294.550781 L 31.554688 295.582031 C 31.382812 296.035156 31.148438 296.222656 30.710938 296.222656 C 30.570312 296.222656 30.398438 296.191406 30.164062 296.144531 L 30.164062 297.082031 C 30.382812 297.191406 30.585938 297.238281 30.867188 297.238281 C 31.195312 297.238281 31.570312 297.128906 31.835938 296.925781 C 32.164062 296.691406 32.351562 296.410156 32.554688 295.894531 L 35.460938 287.972656 Z M 36.609375 287.972656 L 36.609375 294.519531 L 37.65625 294.519531 L 37.65625 290.910156 C 37.65625 289.582031 38.359375 288.707031 39.4375 288.707031 C 40.25 288.707031 40.78125 289.207031 40.78125 289.988281 L 40.78125 294.519531 L 41.8125 294.519531 L 41.8125 289.582031 C 41.8125 288.488281 41 287.785156 39.734375 287.785156 C 38.765625 287.785156 38.140625 288.160156 37.5625 289.082031 L 37.5625 287.972656 Z M 49.082031 291.597656 C 49.082031 290.597656 49.003906 290.003906 48.816406 289.519531 C 48.394531 288.441406 47.394531 287.785156 46.175781 287.785156 C 44.347656 287.785156 43.175781 289.191406 43.175781 291.332031 C 43.175781 293.488281 44.316406 294.800781 46.144531 294.800781 C 47.644531 294.800781 48.675781 293.957031 48.941406 292.535156 L 47.894531 292.535156 C 47.613281 293.394531 47.019531 293.847656 46.191406 293.847656 C 45.519531 293.847656 44.957031 293.550781 44.613281 293.003906 C 44.363281 292.628906 44.269531 292.253906 44.253906 291.597656 Z M 44.285156 290.753906 C 44.378906 289.535156 45.113281 288.753906 46.160156 288.753906 C 47.175781 288.753906 47.972656 289.597656 47.972656 290.675781 C 47.972656 290.707031 47.972656 290.722656 47.957031 290.753906 Z M 49.617188 294.519531 "/>
<path style=" stroke:none;fill-rule:evenodd;fill:rgb(0%,0%,0%);fill-opacity:1;" d="M 87.164062 296 L 90.039062 296 C 91.039062 296 91.476562 296.484375 91.476562 297.5625 L 91.476562 298.34375 C 91.476562 298.875 91.570312 299.40625 91.726562 299.765625 L 93.070312 299.765625 L 93.070312 299.484375 C 92.664062 299.203125 92.570312 298.890625 92.554688 297.71875 C 92.539062 296.28125 92.304688 295.859375 91.367188 295.453125 C 92.351562 294.96875 92.742188 294.359375 92.742188 293.359375 C 92.742188 291.84375 91.789062 291.015625 90.070312 291.015625 L 86.039062 291.015625 L 86.039062 299.765625 L 87.164062 299.765625 Z M 87.164062 295.015625 L 87.164062 292 L 89.867188 292 C 90.492188 292 90.851562 292.09375 91.117188 292.34375 C 91.414062 292.59375 91.570312 292.984375 91.570312 293.515625 C 91.570312 294.546875 91.054688 295.015625 89.867188 295.015625 Z M 93.59375 299.765625 "/>
<path style="fill:none;stroke-width:0.749409;stroke-linecap:round;stroke-linejoin:round;stroke:rgb(0%,0%,0%);stroke-opacity:1;stroke-miterlimit:10;" d="M 97.039062 293.402344 L 116.878906 293.402344 "/>
<path style=" stroke:none;fill-rule:evenodd;fill:rgb(0%,0%,0%);fill-opacity:1;" d="M 133.609375 293.734375 C 133.265625 291.8125 132.15625 290.875 130.25 290.875 C 129.0625 290.875 128.125 291.25 127.46875 291.96875 C 126.6875 292.828125 126.25 294.078125 126.25 295.5 C 126.25 296.9375 126.6875 298.171875 127.515625 299.015625 C 128.1875 299.71875 129.0625 300.046875 130.203125 300.046875 C 132.328125 300.046875 133.53125 298.890625 133.796875 296.578125 L 132.640625 296.578125 C 132.546875 297.171875 132.421875 297.578125 132.25 297.921875 C 131.890625 298.65625 131.140625 299.0625 130.203125 299.0625 C 128.46875 299.0625 127.359375 297.671875 127.359375 295.484375 C 127.359375 293.234375 128.421875 291.859375 130.109375 291.859375 C 130.8125 291.859375 131.484375 292.078125 131.84375 292.40625 C 132.15625 292.703125 132.34375 293.078125 132.46875 293.734375 Z M 134.335938 299.765625 "/>
<path style=" stroke:none;fill-rule:evenodd;fill:rgb(0%,0%,0%);fill-opacity:1;" d="M 169.582031 292.984375 C 169.238281 291.0625 168.128906 290.125 166.222656 290.125 C 165.035156 290.125 164.097656 290.5 163.441406 291.21875 C 162.660156 292.078125 162.222656 293.328125 162.222656 294.75 C 162.222656 296.1875 162.660156 297.421875 163.488281 298.265625 C 164.160156 298.96875 165.035156 299.296875 166.175781 299.296875 C 168.300781 299.296875 169.503906 298.140625 169.769531 295.828125 L 168.613281 295.828125 C 168.519531 296.421875 168.394531 296.828125 168.222656 297.171875 C 167.863281 297.90625 167.113281 298.3125 166.175781 298.3125 C 164.441406 298.3125 163.332031 296.921875 163.332031 294.734375 C 163.332031 292.484375 164.394531 291.109375 166.082031 291.109375 C 166.785156 291.109375 167.457031 291.328125 167.816406 291.65625 C 168.128906 291.953125 168.316406 292.328125 168.441406 292.984375 Z M 170.308594 299.015625 "/>
<path style="fill:none;stroke-width:0.749409;stroke-linecap:butt;stroke-linejoin:round;stroke:rgb(0%,0%,0%);stroke-opacity:1;stroke-miterlimit:10;" d="M 139.640625 289.90625 L 154.523438 289.855469 "/>
<path style="fill:none;stroke-width:0.749409;stroke-linecap:butt;stroke-linejoin:round;stroke:rgb(0%,0%,0%);stroke-opacity:1;stroke-miterlimit:10;" d="M 139.664062 296.652344 L 152.21875 296.609375 "/>
<path style="fill:none;stroke-width:0.749409;stroke-linecap:round;stroke-linejoin:round;stroke:rgb(0%,0%,0%);stroke-opacity:1;stroke-miterlimit:10;" d="M 137.171875 293.289062 L 157.015625 293.21875 "/>
<path style=" stroke:none;fill-rule:evenodd;fill:rgb(0%,0%,0%);fill-opacity:1;" d="M 202.574219 296 L 205.449219 296 C 206.449219 296 206.886719 296.484375 206.886719 297.5625 L 206.886719 298.34375 C 206.886719 298.875 206.980469 299.40625 207.136719 299.765625 L 208.480469 299.765625 L 208.480469 299.484375 C 208.074219 299.203125 207.980469 298.890625 207.964844 297.71875 C 207.949219 296.28125 207.714844 295.859375 206.777344 295.453125 C 207.761719 294.96875 208.152344 294.359375 208.152344 293.359375 C 208.152344 291.84375 207.199219 291.015625 205.480469 291.015625 L 201.449219 291.015625 L 201.449219 299.765625 L 202.574219 299.765625 Z M 202.574219 295.015625 L 202.574219 292 L 205.277344 292 C 205.902344 292 206.261719 292.09375 206.527344 292.34375 C 206.824219 292.59375 206.980469 292.984375 206.980469 293.515625 C 206.980469 294.546875 206.464844 295.015625 205.277344 295.015625 Z M 209.003906 299.765625 "/>
<path style="fill:none;stroke-width:0.749409;stroke-linecap:round;stroke-linejoin:round;stroke:rgb(0%,0%,0%);stroke-opacity:1;stroke-miterlimit:10;" d="M 176.84375 294.539062 L 196.683594 294.539062 "/>
<path style=" stroke:none;fill-rule:evenodd;fill:rgb(0%,0%,0%);fill-opacity:1;" d="M 19.941406 346.601562 L 20.847656 349.226562 L 22.097656 349.226562 L 19.019531 340.476562 L 17.582031 340.476562 L 14.457031 349.226562 L 15.644531 349.226562 L 16.566406 346.601562 Z M 19.628906 345.664062 L 16.847656 345.664062 L 18.285156 341.679688 Z M 23.101562 342.945312 L 23.101562 349.226562 L 24.101562 349.226562 L 24.101562 345.273438 C 24.101562 344.367188 24.773438 343.632812 25.585938 343.632812 C 26.320312 343.632812 26.742188 344.085938 26.742188 344.898438 L 26.742188 349.226562 L 27.757812 349.226562 L 27.757812 345.273438 C 27.757812 344.367188 28.414062 343.632812 29.226562 343.632812 C 29.960938 343.632812 30.398438 344.101562 30.398438 344.898438 L 30.398438 349.226562 L 31.398438 349.226562 L 31.398438 344.507812 C 31.398438 343.382812 30.757812 342.757812 29.570312 342.757812 C 28.742188 342.757812 28.226562 343.007812 27.648438 343.710938 C 27.273438 343.039062 26.773438 342.757812 25.960938 342.757812 C 25.117188 342.757812 24.554688 343.070312 24.023438 343.820312 L 24.023438 342.945312 Z M 34.050781 342.945312 L 33.050781 342.945312 L 33.050781 349.226562 L 34.050781 349.226562 Z M 34.050781 340.476562 L 33.050781 340.476562 L 33.050781 341.742188 L 34.050781 341.742188 Z M 40.855469 340.476562 L 39.855469 340.476562 L 39.855469 343.726562 C 39.449219 343.101562 38.777344 342.757812 37.933594 342.757812 C 36.292969 342.757812 35.230469 344.070312 35.230469 346.070312 C 35.230469 348.195312 36.277344 349.507812 37.964844 349.507812 C 38.824219 349.507812 39.433594 349.179688 39.964844 348.398438 L 39.964844 349.226562 L 40.855469 349.226562 Z M 38.105469 343.695312 C 39.183594 343.695312 39.855469 344.648438 39.855469 346.148438 C 39.855469 347.601562 39.167969 348.570312 38.105469 348.570312 C 37.011719 348.570312 36.277344 347.601562 36.277344 346.132812 C 36.277344 344.664062 37.011719 343.695312 38.105469 343.695312 Z M 47.746094 346.414062 C 47.746094 345.460938 47.667969 344.882812 47.496094 344.414062 C 47.089844 343.382812 46.121094 342.757812 44.949219 342.757812 C 43.199219 342.757812 42.074219 344.101562 42.074219 346.164062 C 42.074219 348.226562 43.167969 349.507812 44.933594 349.507812 C 46.371094 349.507812 47.355469 348.679688 47.621094 347.320312 L 46.605469 347.320312 C 46.324219 348.148438 45.761719 348.585938 44.964844 348.585938 C 44.324219 348.585938 43.792969 348.289062 43.449219 347.757812 C 43.214844 347.398438 43.121094 347.039062 43.121094 346.414062 Z M 43.136719 345.601562 C 43.214844 344.445312 43.933594 343.679688 44.933594 343.679688 C 45.917969 343.679688 46.683594 344.492188 46.683594 345.523438 C 46.683594 345.554688 46.683594 345.585938 46.667969 345.601562 Z M 48.261719 349.226562 "/>
<path style=" stroke:none;fill-rule:evenodd;fill:rgb(0%,0%,0%);fill-opacity:1;" d="M 124.019531 330.59375 C 121.503906 330.59375 119.800781 332.4375 119.800781 335.171875 C 119.800781 337.90625 121.503906 339.765625 124.035156 339.765625 C 125.082031 339.765625 126.035156 339.4375 126.738281 338.84375 C 127.691406 338.03125 128.253906 336.671875 128.253906 335.25 C 128.253906 332.421875 126.582031 330.59375 124.019531 330.59375 Z M 124.019531 331.578125 C 125.910156 331.578125 127.128906 333.015625 127.128906 335.21875 C 127.128906 337.34375 125.878906 338.78125 124.035156 338.78125 C 122.160156 338.78125 120.925781 337.34375 120.925781 335.171875 C 120.925781 333.015625 122.160156 331.578125 124.019531 331.578125 Z M 128.683594 339.484375 "/>
<path style="fill:none;stroke-width:0.749409;stroke-linecap:butt;stroke-linejoin:round;stroke:rgb(0%,0%,0%);stroke-opacity:1;stroke-miterlimit:10;" d="M 125.730469 341.765625 L 125.617188 361.609375 "/>
<path style="fill:none;stroke-width:0.749409;stroke-linecap:butt;stroke-linejoin:round;stroke:rgb(0%,0%,0%);stroke-opacity:1;stroke-miterlimit:10;" d="M 122.730469 341.746094 L 122.617188 361.589844 "/>
<path style=" stroke:none;fill-rule:evenodd;fill:rgb(0%,0%,0%);fill-opacity:1;" d="M 127.613281 372.421875 C 127.269531 370.5 126.160156 369.5625 124.253906 369.5625 C 123.066406 369.5625 122.128906 369.9375 121.472656 370.65625 C 120.691406 371.515625 120.253906 372.765625 120.253906 374.1875 C 120.253906 375.625 120.691406 376.859375 121.519531 377.703125 C 122.191406 378.40625 123.066406 378.734375 124.207031 378.734375 C 126.332031 378.734375 127.535156 377.578125 127.800781 375.265625 L 126.644531 375.265625 C 126.550781 375.859375 126.425781 376.265625 126.253906 376.609375 C 125.894531 377.34375 125.144531 377.75 124.207031 377.75 C 122.472656 377.75 121.363281 376.359375 121.363281 374.171875 C 121.363281 371.921875 122.425781 370.546875 124.113281 370.546875 C 124.816406 370.546875 125.488281 370.765625 125.847656 371.09375 C 126.160156 371.390625 126.347656 371.765625 126.472656 372.421875 Z M 128.339844 378.453125 "/>
<path style="fill:none;stroke-width:0.749409;stroke-linecap:round;stroke-linejoin:round;stroke:rgb(0%,0%,0%);stroke-opacity:1;stroke-miterlimit:10;" d="M 103.792969 391.957031 L 118.136719 378.238281 "/>
<path style="fill:none;stroke-width:0.749409;stroke-linecap:round;stroke-linejoin:round;stroke:rgb(0%,0%,0%);stroke-opacity:1;stroke-miterlimit:10;" d="M 144.113281 392.101562 L 129.96875 378.179688 "/>
<path style=" stroke:none;fill-rule:evenodd;fill:rgb(0%,0%,0%);fill-opacity:1;" d="M 94.65625 406.910156 L 97.53125 406.910156 C 98.53125 406.910156 98.96875 407.394531 98.96875 408.472656 L 98.96875 409.253906 C 98.96875 409.785156 99.0625 410.316406 99.21875 410.675781 L 100.5625 410.675781 L 100.5625 410.394531 C 100.15625 410.113281 100.0625 409.800781 100.046875 408.628906 C 100.03125 407.191406 99.796875 406.769531 98.859375 406.363281 C 99.84375 405.878906 100.234375 405.269531 100.234375 404.269531 C 100.234375 402.753906 99.28125 401.925781 97.5625 401.925781 L 93.53125 401.925781 L 93.53125 410.675781 L 94.65625 410.675781 Z M 94.65625 405.925781 L 94.65625 402.910156 L 97.359375 402.910156 C 97.984375 402.910156 98.34375 403.003906 98.609375 403.253906 C 98.90625 403.503906 99.0625 403.894531 99.0625 404.425781 C 99.0625 405.457031 98.546875 405.925781 97.359375 405.925781 Z M 101.085938 410.675781 "/>
<path style=" stroke:none;fill-rule:evenodd;fill:rgb(0%,0%,0%);fill-opacity:1;" d="M 156.675781 392.933594 L 155.628906 392.933594 L 155.628906 400.089844 L 151.050781 392.933594 L 149.832031 392.933594 L 149.832031 401.683594 L 150.894531 401.683594 L 150.894531 394.589844 L 155.410156 401.683594 L 156.675781 401.683594 Z M 157.589844 401.683594 "/>
<path style=" stroke:none;fill-rule:evenodd;fill:rgb(0%,0%,0%);fill-opacity:1;" d="M 189.832031 377.683594 L 192.707031 377.683594 C 193.707031 377.683594 194.144531 378.167969 194.144531 379.246094 L 194.144531 380.027344 C 194.144531 380.558594 194.238281 381.089844 194.394531 381.449219 L 195.738281 381.449219 L 195.738281 381.167969 C 195.332031 380.886719 195.238281 380.574219 195.222656 379.402344 C 195.207031 377.964844 194.972656 377.542969 194.035156 377.136719 C 195.019531 376.652344 195.410156 376.042969 195.410156 375.042969 C 195.410156 373.527344 194.457031 372.699219 192.738281 372.699219 L 188.707031 372.699219 L 188.707031 381.449219 L 189.832031 381.449219 Z M 189.832031 376.699219 L 189.832031 373.683594 L 192.535156 373.683594 C 193.160156 373.683594 193.519531 373.777344 193.785156 374.027344 C 194.082031 374.277344 194.238281 374.667969 194.238281 375.199219 C 194.238281 376.230469 193.722656 376.699219 192.535156 376.699219 Z M 196.261719 381.449219 "/>
<path style="fill:none;stroke-width:0.749409;stroke-linecap:round;stroke-linejoin:round;stroke:rgb(0%,0%,0%);stroke-opacity:1;stroke-miterlimit:10;" d="M 164.117188 393.0625 L 181.296875 383.140625 "/>
<path style=" stroke:none;fill-rule:evenodd;fill:rgb(0%,0%,0%);fill-opacity:1;" d="M 154.609375 436.886719 L 157.484375 436.886719 C 158.484375 436.886719 158.921875 437.371094 158.921875 438.449219 L 158.921875 439.230469 C 158.921875 439.761719 159.015625 440.292969 159.171875 440.652344 L 160.515625 440.652344 L 160.515625 440.371094 C 160.109375 440.089844 160.015625 439.777344 160 438.605469 C 159.984375 437.167969 159.75 436.746094 158.8125 436.339844 C 159.796875 435.855469 160.1875 435.246094 160.1875 434.246094 C 160.1875 432.730469 159.234375 431.902344 157.515625 431.902344 L 153.484375 431.902344 L 153.484375 440.652344 L 154.609375 440.652344 Z M 154.609375 435.902344 L 154.609375 432.886719 L 157.3125 432.886719 C 157.9375 432.886719 158.296875 432.980469 158.5625 433.230469 C 158.859375 433.480469 159.015625 433.871094 159.015625 434.402344 C 159.015625 435.433594 158.5 435.902344 157.3125 435.902344 Z M 161.039062 440.652344 "/>
<path style="fill:none;stroke-width:0.749409;stroke-linecap:round;stroke-linejoin:round;stroke:rgb(0%,0%,0%);stroke-opacity:1;stroke-miterlimit:10;" d="M 153.855469 406.339844 L 153.597656 426.175781 "/>
<path style=" stroke:none;fill-rule:evenodd;fill:rgb(0%,0%,0%);fill-opacity:1;" d="M 15.445312 491.984375 L 16.351562 494.609375 L 17.601562 494.609375 L 14.523438 485.859375 L 13.085938 485.859375 L 9.960938 494.609375 L 11.148438 494.609375 L 12.070312 491.984375 Z M 15.132812 491.046875 L 12.351562 491.046875 L 13.789062 487.0625 Z M 18.605469 488.328125 L 18.605469 494.609375 L 19.605469 494.609375 L 19.605469 490.65625 C 19.605469 489.75 20.277344 489.015625 21.089844 489.015625 C 21.824219 489.015625 22.246094 489.46875 22.246094 490.28125 L 22.246094 494.609375 L 23.261719 494.609375 L 23.261719 490.65625 C 23.261719 489.75 23.917969 489.015625 24.730469 489.015625 C 25.464844 489.015625 25.902344 489.484375 25.902344 490.28125 L 25.902344 494.609375 L 26.902344 494.609375 L 26.902344 489.890625 C 26.902344 488.765625 26.261719 488.140625 25.074219 488.140625 C 24.246094 488.140625 23.730469 488.390625 23.152344 489.09375 C 22.777344 488.421875 22.277344 488.140625 21.464844 488.140625 C 20.621094 488.140625 20.058594 488.453125 19.527344 489.203125 L 19.527344 488.328125 Z M 29.554688 488.328125 L 28.554688 488.328125 L 28.554688 494.609375 L 29.554688 494.609375 Z M 29.554688 485.859375 L 28.554688 485.859375 L 28.554688 487.125 L 29.554688 487.125 Z M 31.265625 488.328125 L 31.265625 494.609375 L 32.265625 494.609375 L 32.265625 491.140625 C 32.265625 489.859375 32.9375 489.015625 33.96875 489.015625 C 34.765625 489.015625 35.265625 489.5 35.265625 490.25 L 35.265625 494.609375 L 36.265625 494.609375 L 36.265625 489.859375 C 36.265625 488.8125 35.484375 488.140625 34.28125 488.140625 C 33.34375 488.140625 32.734375 488.5 32.1875 489.375 L 32.1875 488.328125 Z M 43.25 491.796875 C 43.25 490.84375 43.171875 490.265625 43 489.796875 C 42.59375 488.765625 41.625 488.140625 40.453125 488.140625 C 38.703125 488.140625 37.578125 489.484375 37.578125 491.546875 C 37.578125 493.609375 38.671875 494.890625 40.4375 494.890625 C 41.875 494.890625 42.859375 494.0625 43.125 492.703125 L 42.109375 492.703125 C 41.828125 493.53125 41.265625 493.96875 40.46875 493.96875 C 39.828125 493.96875 39.296875 493.671875 38.953125 493.140625 C 38.71875 492.78125 38.625 492.421875 38.625 491.796875 Z M 38.640625 490.984375 C 38.71875 489.828125 39.4375 489.0625 40.4375 489.0625 C 41.421875 489.0625 42.1875 489.875 42.1875 490.90625 C 42.1875 490.9375 42.1875 490.96875 42.171875 490.984375 Z M 43.765625 494.609375 "/>
<path style=" stroke:none;fill-rule:evenodd;fill:rgb(0%,0%,0%);fill-opacity:1;" d="M 69.179688 494.589844 L 72.054688 494.589844 C 73.054688 494.589844 73.492188 495.074219 73.492188 496.152344 L 73.492188 496.933594 C 73.492188 497.464844 73.585938 497.996094 73.742188 498.355469 L 75.085938 498.355469 L 75.085938 498.074219 C 74.679688 497.792969 74.585938 497.480469 74.570312 496.308594 C 74.554688 494.871094 74.320312 494.449219 73.382812 494.042969 C 74.367188 493.558594 74.757812 492.949219 74.757812 491.949219 C 74.757812 490.433594 73.804688 489.605469 72.085938 489.605469 L 68.054688 489.605469 L 68.054688 498.355469 L 69.179688 498.355469 Z M 69.179688 493.605469 L 69.179688 490.589844 L 71.882812 490.589844 C 72.507812 490.589844 72.867188 490.683594 73.132812 490.933594 C 73.429688 491.183594 73.585938 491.574219 73.585938 492.105469 C 73.585938 493.136719 73.070312 493.605469 71.882812 493.605469 Z M 75.609375 498.355469 "/>
<path style="fill:none;stroke-width:0.749409;stroke-linecap:round;stroke-linejoin:round;stroke:rgb(0%,0%,0%);stroke-opacity:1;stroke-miterlimit:10;" d="M 79.417969 492.382812 L 99.261719 492.382812 "/>
<path style=" stroke:none;fill-rule:evenodd;fill:rgb(0%,0%,0%);fill-opacity:1;" d="M 114.710938 490.355469 L 113.664062 490.355469 L 113.664062 497.511719 L 109.085938 490.355469 L 107.867188 490.355469 L 107.867188 499.105469 L 108.929688 499.105469 L 108.929688 492.011719 L 113.445312 499.105469 L 114.710938 499.105469 Z M 115.625 499.105469 "/>
<path style=" stroke:none;fill-rule:evenodd;fill:rgb(0%,0%,0%);fill-opacity:1;" d="M 147.117188 475.105469 L 149.992188 475.105469 C 150.992188 475.105469 151.429688 475.589844 151.429688 476.667969 L 151.429688 477.449219 C 151.429688 477.980469 151.523438 478.511719 151.679688 478.871094 L 153.023438 478.871094 L 153.023438 478.589844 C 152.617188 478.308594 152.523438 477.996094 152.507812 476.824219 C 152.492188 475.386719 152.257812 474.964844 151.320312 474.558594 C 152.304688 474.074219 152.695312 473.464844 152.695312 472.464844 C 152.695312 470.949219 151.742188 470.121094 150.023438 470.121094 L 145.992188 470.121094 L 145.992188 478.871094 L 147.117188 478.871094 Z M 147.117188 474.121094 L 147.117188 471.105469 L 149.820312 471.105469 C 150.445312 471.105469 150.804688 471.199219 151.070312 471.449219 C 151.367188 471.699219 151.523438 472.089844 151.523438 472.621094 C 151.523438 473.652344 151.007812 474.121094 149.820312 474.121094 Z M 153.546875 478.871094 "/>
<path style="fill:none;stroke-width:0.749409;stroke-linecap:round;stroke-linejoin:round;stroke:rgb(0%,0%,0%);stroke-opacity:1;stroke-miterlimit:10;" d="M 122.160156 490.101562 L 139.335938 480.179688 "/>
<path style=" stroke:none;fill-rule:evenodd;fill:rgb(0%,0%,0%);fill-opacity:1;" d="M 144.117188 516.324219 L 146.992188 516.324219 C 147.992188 516.324219 148.429688 516.808594 148.429688 517.886719 L 148.429688 518.667969 C 148.429688 519.199219 148.523438 519.730469 148.679688 520.089844 L 150.023438 520.089844 L 150.023438 519.808594 C 149.617188 519.527344 149.523438 519.214844 149.507812 518.042969 C 149.492188 516.605469 149.257812 516.183594 148.320312 515.777344 C 149.304688 515.292969 149.695312 514.683594 149.695312 513.683594 C 149.695312 512.167969 148.742188 511.339844 147.023438 511.339844 L 142.992188 511.339844 L 142.992188 520.089844 L 144.117188 520.089844 Z M 144.117188 515.339844 L 144.117188 512.324219 L 146.820312 512.324219 C 147.445312 512.324219 147.804688 512.417969 148.070312 512.667969 C 148.367188 512.917969 148.523438 513.308594 148.523438 513.839844 C 148.523438 514.871094 148.007812 515.339844 146.820312 515.339844 Z M 150.546875 520.089844 "/>
<path style="fill:none;stroke-width:0.749409;stroke-linecap:round;stroke-linejoin:round;stroke:rgb(0%,0%,0%);stroke-opacity:1;stroke-miterlimit:10;" d="M 120.46875 503.261719 L 137.652344 513.183594 "/>
<path style=" stroke:none;fill-rule:evenodd;fill:rgb(0%,0%,0%);fill-opacity:1;" d="M 250.207031 52.050781 L 251.113281 54.707031 L 252.363281 54.707031 L 249.269531 45.894531 L 247.816406 45.894531 L 244.675781 54.707031 L 245.878906 54.707031 L 246.800781 52.050781 Z M 249.894531 51.113281 L 247.082031 51.113281 L 248.535156 47.097656 Z M 253.367188 48.363281 L 253.367188 54.707031 L 254.382812 54.707031 L 254.382812 51.410156 C 254.382812 50.503906 254.617188 49.910156 255.101562 49.566406 C 255.414062 49.332031 255.726562 49.269531 256.414062 49.253906 L 256.414062 48.222656 C 256.257812 48.207031 256.164062 48.191406 256.039062 48.191406 C 255.382812 48.191406 254.882812 48.582031 254.304688 49.519531 L 254.304688 48.363281 Z M 259.863281 48.191406 C 258.082031 48.191406 257.003906 49.457031 257.003906 51.582031 C 257.003906 53.722656 258.066406 54.988281 259.863281 54.988281 C 261.644531 54.988281 262.738281 53.722656 262.738281 51.628906 C 262.738281 49.441406 261.675781 48.191406 259.863281 48.191406 Z M 259.863281 49.113281 C 261.003906 49.113281 261.675781 50.050781 261.675781 51.628906 C 261.675781 53.113281 260.988281 54.050781 259.863281 54.050781 C 258.738281 54.050781 258.050781 53.128906 258.050781 51.582031 C 258.050781 50.066406 258.738281 49.113281 259.863281 49.113281 Z M 264.132812 48.363281 L 264.132812 54.707031 L 265.148438 54.707031 L 265.148438 50.722656 C 265.148438 49.816406 265.820312 49.066406 266.632812 49.066406 C 267.382812 49.066406 267.804688 49.535156 267.804688 50.347656 L 267.804688 54.707031 L 268.820312 54.707031 L 268.820312 50.722656 C 268.820312 49.816406 269.492188 49.066406 270.320312 49.066406 C 271.054688 49.066406 271.492188 49.550781 271.492188 50.347656 L 271.492188 54.707031 L 272.507812 54.707031 L 272.507812 49.957031 C 272.507812 48.816406 271.851562 48.191406 270.664062 48.191406 C 269.820312 48.191406 269.304688 48.441406 268.726562 49.160156 C 268.351562 48.472656 267.835938 48.191406 267.007812 48.191406 C 266.164062 48.191406 265.617188 48.503906 265.070312 49.269531 L 265.070312 48.363281 Z M 279.832031 54.113281 C 279.722656 54.144531 279.675781 54.144531 279.613281 54.144531 C 279.269531 54.144531 279.066406 53.957031 279.066406 53.644531 L 279.066406 49.910156 C 279.066406 48.800781 278.253906 48.191406 276.691406 48.191406 C 275.769531 48.191406 275.003906 48.457031 274.582031 48.925781 C 274.300781 49.253906 274.175781 49.613281 274.144531 50.238281 L 275.160156 50.238281 C 275.253906 49.472656 275.707031 49.113281 276.660156 49.113281 C 277.566406 49.113281 278.066406 49.457031 278.066406 50.066406 L 278.066406 50.332031 C 278.066406 50.753906 277.816406 50.941406 277.019531 51.035156 C 275.582031 51.207031 275.363281 51.253906 274.988281 51.410156 C 274.253906 51.722656 273.878906 52.285156 273.878906 53.113281 C 273.878906 54.253906 274.675781 54.988281 275.957031 54.988281 C 276.753906 54.988281 277.394531 54.707031 278.097656 54.050781 C 278.175781 54.691406 278.488281 54.988281 279.144531 54.988281 C 279.347656 54.988281 279.503906 54.957031 279.832031 54.878906 Z M 278.066406 52.707031 C 278.066406 53.050781 277.972656 53.253906 277.675781 53.535156 C 277.253906 53.910156 276.753906 54.097656 276.175781 54.097656 C 275.378906 54.097656 274.925781 53.722656 274.925781 53.082031 C 274.925781 52.425781 275.363281 52.082031 276.441406 51.925781 C 277.503906 51.785156 277.722656 51.738281 278.066406 51.582031 Z M 283.167969 48.363281 L 282.121094 48.363281 L 282.121094 46.628906 L 281.121094 46.628906 L 281.121094 48.363281 L 280.261719 48.363281 L 280.261719 49.191406 L 281.121094 49.191406 L 281.121094 53.988281 C 281.121094 54.628906 281.558594 54.988281 282.339844 54.988281 C 282.574219 54.988281 282.824219 54.957031 283.167969 54.894531 L 283.167969 54.050781 C 283.027344 54.097656 282.871094 54.097656 282.683594 54.097656 C 282.246094 54.097656 282.121094 53.988281 282.121094 53.535156 L 282.121094 49.191406 L 283.167969 49.191406 Z M 285.261719 48.363281 L 284.261719 48.363281 L 284.261719 54.707031 L 285.261719 54.707031 Z M 285.261719 45.894531 L 284.246094 45.894531 L 284.246094 47.160156 L 285.261719 47.160156 Z M 291.839844 50.503906 C 291.777344 49.878906 291.652344 49.488281 291.402344 49.128906 C 290.980469 48.535156 290.214844 48.191406 289.324219 48.191406 C 287.621094 48.191406 286.511719 49.550781 286.511719 51.644531 C 286.511719 53.691406 287.605469 54.988281 289.324219 54.988281 C 290.824219 54.988281 291.777344 54.082031 291.902344 52.535156 L 290.886719 52.535156 C 290.714844 53.550781 290.199219 54.050781 289.339844 54.050781 C 288.230469 54.050781 287.558594 53.144531 287.558594 51.644531 C 287.558594 50.066406 288.214844 49.113281 289.324219 49.113281 C 290.167969 49.113281 290.699219 49.613281 290.824219 50.503906 Z M 292.183594 54.707031 "/>
<path style="fill:none;stroke-width:0.749409;stroke-linecap:butt;stroke-linejoin:round;stroke:rgb(0%,0%,0%);stroke-opacity:1;stroke-miterlimit:10;" d="M 337.1875 37.175781 L 350.074219 44.621094 "/>
<path style="fill:none;stroke-width:0.749409;stroke-linecap:round;stroke-linejoin:round;stroke:rgb(0%,0%,0%);stroke-opacity:1;stroke-miterlimit:10;" d="M 337.289062 32.039062 L 354.46875 41.96875 "/>
<path style="fill:none;stroke-width:0.749409;stroke-linecap:round;stroke-linejoin:round;stroke:rgb(0%,0%,0%);stroke-opacity:1;stroke-miterlimit:10;" d="M 320.109375 61.78125 L 337.289062 71.707031 "/>
<path style="fill:none;stroke-width:0.749409;stroke-linecap:butt;stroke-linejoin:round;stroke:rgb(0%,0%,0%);stroke-opacity:1;stroke-miterlimit:10;" d="M 324.605469 44.445312 L 324.605469 59.304688 "/>
<path style="fill:none;stroke-width:0.749409;stroke-linecap:round;stroke-linejoin:round;stroke:rgb(0%,0%,0%);stroke-opacity:1;stroke-miterlimit:10;" d="M 320.109375 41.96875 L 320.109375 61.78125 "/>
<path style="fill:none;stroke-width:0.749409;stroke-linecap:butt;stroke-linejoin:round;stroke:rgb(0%,0%,0%);stroke-opacity:1;stroke-miterlimit:10;" d="M 350.074219 59.128906 L 337.1875 66.574219 "/>
<path style="fill:none;stroke-width:0.749409;stroke-linecap:round;stroke-linejoin:round;stroke:rgb(0%,0%,0%);stroke-opacity:1;stroke-miterlimit:10;" d="M 354.46875 61.78125 L 337.289062 71.707031 "/>
<path style="fill:none;stroke-width:0.749409;stroke-linecap:round;stroke-linejoin:round;stroke:rgb(0%,0%,0%);stroke-opacity:1;stroke-miterlimit:10;" d="M 354.46875 41.96875 L 354.46875 61.78125 "/>
<path style="fill:none;stroke-width:0.749409;stroke-linecap:round;stroke-linejoin:round;stroke:rgb(0%,0%,0%);stroke-opacity:1;stroke-miterlimit:10;" d="M 320.109375 41.96875 L 337.289062 32.039062 "/>
<path style=" stroke:none;fill-rule:evenodd;fill:rgb(0%,0%,0%);fill-opacity:1;" d="M 241.019531 130.1875 C 240.660156 128.21875 239.535156 127.25 237.566406 127.25 C 236.347656 127.25 235.378906 127.640625 234.707031 128.375 C 233.894531 129.265625 233.457031 130.546875 233.457031 132 C 233.457031 133.484375 233.910156 134.75 234.769531 135.625 C 235.457031 136.34375 236.332031 136.671875 237.503906 136.671875 C 239.707031 136.671875 240.941406 135.484375 241.207031 133.109375 L 240.019531 133.109375 C 239.925781 133.734375 239.800781 134.140625 239.613281 134.5 C 239.253906 135.25 238.488281 135.65625 237.519531 135.65625 C 235.738281 135.65625 234.597656 134.234375 234.597656 131.984375 C 234.597656 129.6875 235.691406 128.265625 237.425781 128.265625 C 238.144531 128.265625 238.832031 128.484375 239.207031 128.828125 C 239.535156 129.140625 239.722656 129.53125 239.847656 130.1875 Z M 248.359375 135.78125 C 248.25 135.8125 248.203125 135.8125 248.140625 135.8125 C 247.78125 135.8125 247.578125 135.625 247.578125 135.3125 L 247.578125 131.515625 C 247.578125 130.359375 246.75 129.75 245.15625 129.75 C 244.21875 129.75 243.4375 130.015625 243.015625 130.5 C 242.71875 130.828125 242.59375 131.203125 242.5625 131.84375 L 243.609375 131.84375 C 243.6875 131.046875 244.15625 130.6875 245.125 130.6875 C 246.046875 130.6875 246.5625 131.046875 246.5625 131.65625 L 246.5625 131.921875 C 246.5625 132.359375 246.296875 132.546875 245.484375 132.640625 C 244.03125 132.828125 243.8125 132.875 243.421875 133.03125 C 242.671875 133.34375 242.28125 133.921875 242.28125 134.765625 C 242.28125 135.9375 243.09375 136.671875 244.40625 136.671875 C 245.21875 136.671875 245.875 136.390625 246.59375 135.71875 C 246.671875 136.375 247 136.671875 247.65625 136.671875 C 247.875 136.671875 248.03125 136.65625 248.359375 136.5625 Z M 246.5625 134.359375 C 246.5625 134.703125 246.46875 134.90625 246.15625 135.1875 C 245.734375 135.578125 245.234375 135.78125 244.625 135.78125 C 243.828125 135.78125 243.359375 135.390625 243.359375 134.734375 C 243.359375 134.0625 243.8125 133.71875 244.90625 133.5625 C 246 133.40625 246.21875 133.359375 246.5625 133.203125 Z M 249.460938 129.9375 L 249.460938 136.390625 L 250.507812 136.390625 L 250.507812 133.03125 C 250.507812 132.109375 250.742188 131.515625 251.226562 131.15625 C 251.554688 130.921875 251.867188 130.84375 252.570312 130.828125 L 252.570312 129.78125 C 252.398438 129.765625 252.320312 129.75 252.179688 129.75 C 251.507812 129.75 251.007812 130.140625 250.414062 131.109375 L 250.414062 129.9375 Z M 253.394531 127.40625 L 253.394531 136.390625 L 254.316406 136.390625 L 254.316406 135.5625 C 254.800781 136.3125 255.457031 136.671875 256.363281 136.671875 C 258.066406 136.671875 259.175781 135.28125 259.175781 133.140625 C 259.175781 131.046875 258.113281 129.75 256.410156 129.75 C 255.519531 129.75 254.894531 130.078125 254.410156 130.8125 L 254.410156 127.40625 Z M 256.207031 130.703125 C 257.363281 130.703125 258.097656 131.703125 258.097656 133.25 C 258.097656 134.71875 257.332031 135.71875 256.207031 135.71875 C 255.128906 135.71875 254.410156 134.71875 254.410156 133.203125 C 254.410156 131.6875 255.128906 130.703125 256.207031 130.703125 Z M 262.9375 129.75 C 261.125 129.75 260.015625 131.046875 260.015625 133.203125 C 260.015625 135.375 261.109375 136.671875 262.9375 136.671875 C 264.75 136.671875 265.859375 135.375 265.859375 133.265625 C 265.859375 131.03125 264.796875 129.75 262.9375 129.75 Z M 262.9375 130.6875 C 264.109375 130.6875 264.796875 131.640625 264.796875 133.25 C 264.796875 134.765625 264.078125 135.71875 262.9375 135.71875 C 261.796875 135.71875 261.09375 134.78125 261.09375 133.203125 C 261.09375 131.65625 261.796875 130.6875 262.9375 130.6875 Z M 270.027344 133.046875 L 272.199219 129.9375 L 271.042969 129.9375 L 269.496094 132.265625 L 267.933594 129.9375 L 266.761719 129.9375 L 268.917969 133.09375 L 266.636719 136.390625 L 267.808594 136.390625 L 269.449219 133.90625 L 271.074219 136.390625 L 272.261719 136.390625 Z M 278.410156 132.09375 C 278.347656 131.46875 278.222656 131.0625 277.972656 130.703125 C 277.535156 130.109375 276.753906 129.75 275.847656 129.75 C 274.113281 129.75 272.972656 131.125 272.972656 133.265625 C 272.972656 135.359375 274.082031 136.671875 275.847656 136.671875 C 277.378906 136.671875 278.347656 135.75 278.472656 134.171875 L 277.441406 134.171875 C 277.269531 135.203125 276.738281 135.71875 275.863281 135.71875 C 274.722656 135.71875 274.050781 134.796875 274.050781 133.265625 C 274.050781 131.65625 274.722656 130.6875 275.847656 130.6875 C 276.707031 130.6875 277.238281 131.203125 277.363281 132.09375 Z M 283.542969 129.9375 L 281.761719 134.953125 L 280.105469 129.9375 L 279.011719 129.9375 L 281.183594 136.421875 L 280.792969 137.4375 C 280.636719 137.890625 280.402344 138.0625 279.964844 138.0625 C 279.824219 138.0625 279.652344 138.046875 279.433594 138 L 279.433594 138.921875 C 279.636719 139.03125 279.839844 139.078125 280.121094 139.078125 C 280.449219 139.078125 280.808594 138.96875 281.074219 138.765625 C 281.402344 138.53125 281.589844 138.265625 281.777344 137.75 L 284.652344 129.9375 Z M 286.800781 127.40625 L 285.769531 127.40625 L 285.769531 136.390625 L 286.800781 136.390625 Z M 289.503906 129.9375 L 288.488281 129.9375 L 288.488281 136.390625 L 289.503906 136.390625 Z M 289.503906 127.40625 L 288.472656 127.40625 L 288.472656 128.703125 L 289.503906 128.703125 Z M 296.210938 132.09375 C 296.148438 131.46875 296.023438 131.0625 295.773438 130.703125 C 295.335938 130.109375 294.554688 129.75 293.648438 129.75 C 291.914062 129.75 290.773438 131.125 290.773438 133.265625 C 290.773438 135.359375 291.882812 136.671875 293.648438 136.671875 C 295.179688 136.671875 296.148438 135.75 296.273438 134.171875 L 295.242188 134.171875 C 295.070312 135.203125 294.539062 135.71875 293.664062 135.71875 C 292.523438 135.71875 291.851562 134.796875 291.851562 133.265625 C 291.851562 131.65625 292.523438 130.6875 293.648438 130.6875 C 294.507812 130.6875 295.039062 131.203125 295.164062 132.09375 Z M 306.582031 135.78125 C 306.472656 135.8125 306.425781 135.8125 306.363281 135.8125 C 306.003906 135.8125 305.800781 135.625 305.800781 135.3125 L 305.800781 131.515625 C 305.800781 130.359375 304.972656 129.75 303.378906 129.75 C 302.441406 129.75 301.660156 130.015625 301.238281 130.5 C 300.941406 130.828125 300.816406 131.203125 300.785156 131.84375 L 301.832031 131.84375 C 301.910156 131.046875 302.378906 130.6875 303.347656 130.6875 C 304.269531 130.6875 304.785156 131.046875 304.785156 131.65625 L 304.785156 131.921875 C 304.785156 132.359375 304.519531 132.546875 303.707031 132.640625 C 302.253906 132.828125 302.035156 132.875 301.644531 133.03125 C 300.894531 133.34375 300.503906 133.921875 300.503906 134.765625 C 300.503906 135.9375 301.316406 136.671875 302.628906 136.671875 C 303.441406 136.671875 304.097656 136.390625 304.816406 135.71875 C 304.894531 136.375 305.222656 136.671875 305.878906 136.671875 C 306.097656 136.671875 306.253906 136.65625 306.582031 136.5625 Z M 304.785156 134.359375 C 304.785156 134.703125 304.691406 134.90625 304.378906 135.1875 C 303.957031 135.578125 303.457031 135.78125 302.847656 135.78125 C 302.050781 135.78125 301.582031 135.390625 301.582031 134.734375 C 301.582031 134.0625 302.035156 133.71875 303.128906 133.5625 C 304.222656 133.40625 304.441406 133.359375 304.785156 133.203125 Z M 312.65625 132.09375 C 312.59375 131.46875 312.46875 131.0625 312.21875 130.703125 C 311.78125 130.109375 311 129.75 310.09375 129.75 C 308.359375 129.75 307.21875 131.125 307.21875 133.265625 C 307.21875 135.359375 308.328125 136.671875 310.09375 136.671875 C 311.625 136.671875 312.59375 135.75 312.71875 134.171875 L 311.6875 134.171875 C 311.515625 135.203125 310.984375 135.71875 310.109375 135.71875 C 308.96875 135.71875 308.296875 134.796875 308.296875 133.265625 C 308.296875 131.65625 308.96875 130.6875 310.09375 130.6875 C 310.953125 130.6875 311.484375 131.203125 311.609375 132.09375 Z M 314.851562 129.9375 L 313.835938 129.9375 L 313.835938 136.390625 L 314.851562 136.390625 Z M 314.851562 127.40625 L 313.820312 127.40625 L 313.820312 128.703125 L 314.851562 128.703125 Z M 321.855469 127.40625 L 320.824219 127.40625 L 320.824219 130.75 C 320.386719 130.09375 319.699219 129.75 318.839844 129.75 C 317.167969 129.75 316.074219 131.09375 316.074219 133.140625 C 316.074219 135.328125 317.136719 136.671875 318.871094 136.671875 C 319.761719 136.671875 320.386719 136.34375 320.933594 135.546875 L 320.933594 136.390625 L 321.855469 136.390625 Z M 319.011719 130.703125 C 320.121094 130.703125 320.824219 131.6875 320.824219 133.234375 C 320.824219 134.71875 320.105469 135.71875 319.027344 135.71875 C 317.886719 135.71875 317.136719 134.71875 317.136719 133.203125 C 317.136719 131.703125 317.886719 130.703125 319.011719 130.703125 Z M 322.601562 136.390625 "/>
<path style=" stroke:none;fill-rule:evenodd;fill:rgb(0%,0%,0%);fill-opacity:1;" d="M 373.574219 102.769531 C 371.058594 102.769531 369.355469 104.613281 369.355469 107.347656 C 369.355469 110.082031 371.058594 111.941406 373.589844 111.941406 C 374.636719 111.941406 375.589844 111.613281 376.292969 111.019531 C 377.246094 110.207031 377.808594 108.847656 377.808594 107.425781 C 377.808594 104.597656 376.136719 102.769531 373.574219 102.769531 Z M 373.574219 103.753906 C 375.464844 103.753906 376.683594 105.191406 376.683594 107.394531 C 376.683594 109.519531 375.433594 110.957031 373.589844 110.957031 C 371.714844 110.957031 370.480469 109.519531 370.480469 107.347656 C 370.480469 105.191406 371.714844 103.753906 373.574219 103.753906 Z M 378.238281 111.660156 "/>
<path style="fill:none;stroke-width:0.749409;stroke-linecap:butt;stroke-linejoin:round;stroke:rgb(0%,0%,0%);stroke-opacity:1;stroke-miterlimit:10;" d="M 375.28125 113.945312 L 375.167969 133.785156 "/>
<path style="fill:none;stroke-width:0.749409;stroke-linecap:butt;stroke-linejoin:round;stroke:rgb(0%,0%,0%);stroke-opacity:1;stroke-miterlimit:10;" d="M 372.285156 113.925781 L 372.171875 133.769531 "/>
<path style=" stroke:none;fill-rule:evenodd;fill:rgb(0%,0%,0%);fill-opacity:1;" d="M 377.167969 144.601562 C 376.824219 142.679688 375.714844 141.742188 373.808594 141.742188 C 372.621094 141.742188 371.683594 142.117188 371.027344 142.835938 C 370.246094 143.695312 369.808594 144.945312 369.808594 146.367188 C 369.808594 147.804688 370.246094 149.039062 371.074219 149.882812 C 371.746094 150.585938 372.621094 150.914062 373.761719 150.914062 C 375.886719 150.914062 377.089844 149.757812 377.355469 147.445312 L 376.199219 147.445312 C 376.105469 148.039062 375.980469 148.445312 375.808594 148.789062 C 375.449219 149.523438 374.699219 149.929688 373.761719 149.929688 C 372.027344 149.929688 370.917969 148.539062 370.917969 146.351562 C 370.917969 144.101562 371.980469 142.726562 373.667969 142.726562 C 374.371094 142.726562 375.042969 142.945312 375.402344 143.273438 C 375.714844 143.570312 375.902344 143.945312 376.027344 144.601562 Z M 377.894531 150.632812 "/>
<path style="fill:none;stroke-width:0.749409;stroke-linecap:round;stroke-linejoin:round;stroke:rgb(0%,0%,0%);stroke-opacity:1;stroke-miterlimit:10;" d="M 353.347656 164.136719 L 367.691406 150.417969 "/>
<path style="fill:none;stroke-width:0.749409;stroke-linecap:round;stroke-linejoin:round;stroke:rgb(0%,0%,0%);stroke-opacity:1;stroke-miterlimit:10;" d="M 392.917969 164.277344 L 378.773438 150.359375 "/>
<path style=" stroke:none;fill-rule:evenodd;fill:rgb(0%,0%,0%);fill-opacity:1;" d="M 344.210938 179.089844 L 347.085938 179.089844 C 348.085938 179.089844 348.523438 179.574219 348.523438 180.652344 L 348.523438 181.433594 C 348.523438 181.964844 348.617188 182.496094 348.773438 182.855469 L 350.117188 182.855469 L 350.117188 182.574219 C 349.710938 182.292969 349.617188 181.980469 349.601562 180.808594 C 349.585938 179.371094 349.351562 178.949219 348.414062 178.542969 C 349.398438 178.058594 349.789062 177.449219 349.789062 176.449219 C 349.789062 174.933594 348.835938 174.105469 347.117188 174.105469 L 343.085938 174.105469 L 343.085938 182.855469 L 344.210938 182.855469 Z M 344.210938 178.105469 L 344.210938 175.089844 L 346.914062 175.089844 C 347.539062 175.089844 347.898438 175.183594 348.164062 175.433594 C 348.460938 175.683594 348.617188 176.074219 348.617188 176.605469 C 348.617188 177.636719 348.101562 178.105469 346.914062 178.105469 Z M 350.640625 182.855469 "/>
<path style=" stroke:none;fill-rule:evenodd;fill:rgb(0%,0%,0%);fill-opacity:1;" d="M 390.472656 173.964844 C 387.957031 173.964844 386.253906 175.808594 386.253906 178.542969 C 386.253906 181.277344 387.957031 183.136719 390.488281 183.136719 C 391.535156 183.136719 392.488281 182.808594 393.191406 182.214844 C 394.144531 181.402344 394.707031 180.042969 394.707031 178.621094 C 394.707031 175.792969 393.035156 173.964844 390.472656 173.964844 Z M 390.472656 174.949219 C 392.363281 174.949219 393.582031 176.386719 393.582031 178.589844 C 393.582031 180.714844 392.332031 182.152344 390.488281 182.152344 C 388.613281 182.152344 387.378906 180.714844 387.378906 178.542969 C 387.378906 176.386719 388.613281 174.949219 390.472656 174.949219 Z M 401.746094 178.871094 L 401.746094 182.855469 L 402.871094 182.855469 L 402.871094 174.105469 L 401.746094 174.105469 L 401.746094 177.886719 L 397.246094 177.886719 L 397.246094 174.105469 L 396.136719 174.105469 L 396.136719 182.855469 L 397.261719 182.855469 L 397.261719 178.871094 Z M 403.800781 182.855469 "/>
<path style=" stroke:none;fill-rule:evenodd;fill:rgb(0%,0%,0%);fill-opacity:1;" d="M 257.515625 227.582031 L 262.265625 227.582031 L 262.265625 226.597656 L 257.515625 226.597656 L 257.515625 223.800781 L 262.453125 223.800781 L 262.453125 222.816406 L 256.390625 222.816406 L 256.390625 231.566406 L 262.671875 231.566406 L 262.671875 230.582031 L 257.515625 230.582031 Z M 268.566406 227.035156 C 268.566406 225.800781 267.738281 225.097656 266.285156 225.097656 C 264.832031 225.097656 263.878906 225.847656 263.878906 227.019531 C 263.878906 228.003906 264.378906 228.472656 265.878906 228.832031 L 266.800781 229.050781 C 267.503906 229.222656 267.785156 229.472656 267.785156 229.941406 C 267.785156 230.519531 267.191406 230.925781 266.316406 230.925781 C 265.769531 230.925781 265.316406 230.769531 265.066406 230.503906 C 264.910156 230.316406 264.847656 230.144531 264.785156 229.691406 L 263.722656 229.691406 C 263.769531 231.144531 264.582031 231.847656 266.238281 231.847656 C 267.816406 231.847656 268.832031 231.066406 268.832031 229.847656 C 268.832031 228.910156 268.300781 228.394531 267.050781 228.097656 L 266.082031 227.863281 C 265.269531 227.675781 264.925781 227.410156 264.925781 226.972656 C 264.925781 226.394531 265.441406 226.019531 266.253906 226.019531 C 267.066406 226.019531 267.488281 226.363281 267.519531 227.035156 Z M 272.363281 225.285156 L 271.332031 225.285156 L 271.332031 223.550781 L 270.332031 223.550781 L 270.332031 225.285156 L 269.488281 225.285156 L 269.488281 226.097656 L 270.332031 226.097656 L 270.332031 230.847656 C 270.332031 231.488281 270.769531 231.847656 271.550781 231.847656 C 271.785156 231.847656 272.035156 231.816406 272.363281 231.753906 L 272.363281 230.925781 C 272.238281 230.957031 272.082031 230.972656 271.878906 230.972656 C 271.457031 230.972656 271.332031 230.847656 271.332031 230.410156 L 271.332031 226.097656 L 272.363281 226.097656 Z M 278.808594 228.753906 C 278.808594 227.800781 278.730469 227.222656 278.558594 226.753906 C 278.152344 225.722656 277.183594 225.097656 276.011719 225.097656 C 274.261719 225.097656 273.136719 226.441406 273.136719 228.503906 C 273.136719 230.566406 274.230469 231.847656 275.996094 231.847656 C 277.433594 231.847656 278.417969 231.019531 278.683594 229.660156 L 277.667969 229.660156 C 277.386719 230.488281 276.824219 230.925781 276.027344 230.925781 C 275.386719 230.925781 274.855469 230.628906 274.511719 230.097656 C 274.277344 229.738281 274.183594 229.378906 274.183594 228.753906 Z M 274.199219 227.941406 C 274.277344 226.785156 274.996094 226.019531 275.996094 226.019531 C 276.980469 226.019531 277.746094 226.832031 277.746094 227.863281 C 277.746094 227.894531 277.746094 227.925781 277.730469 227.941406 Z M 280.152344 225.285156 L 280.152344 231.566406 L 281.167969 231.566406 L 281.167969 228.300781 C 281.167969 227.410156 281.386719 226.816406 281.871094 226.472656 C 282.183594 226.238281 282.480469 226.160156 283.183594 226.160156 L 283.183594 225.128906 C 283.011719 225.113281 282.917969 225.097656 282.792969 225.097656 C 282.136719 225.097656 281.652344 225.488281 281.074219 226.425781 L 281.074219 225.285156 Z M 283.320312 231.566406 "/>
<path style=" stroke:none;fill-rule:evenodd;fill:rgb(0%,0%,0%);fill-opacity:1;" d="M 356.335938 215.183594 C 353.820312 215.183594 352.117188 217.027344 352.117188 219.761719 C 352.117188 222.496094 353.820312 224.355469 356.351562 224.355469 C 357.398438 224.355469 358.351562 224.027344 359.054688 223.433594 C 360.007812 222.621094 360.570312 221.261719 360.570312 219.839844 C 360.570312 217.011719 358.898438 215.183594 356.335938 215.183594 Z M 356.335938 216.167969 C 358.226562 216.167969 359.445312 217.605469 359.445312 219.808594 C 359.445312 221.933594 358.195312 223.371094 356.351562 223.371094 C 354.476562 223.371094 353.242188 221.933594 353.242188 219.761719 C 353.242188 217.605469 354.476562 216.167969 356.335938 216.167969 Z M 361 224.074219 "/>
<path style="fill:none;stroke-width:0.749409;stroke-linecap:butt;stroke-linejoin:round;stroke:rgb(0%,0%,0%);stroke-opacity:1;stroke-miterlimit:10;" d="M 357.308594 225.59375 L 357.195312 245.4375 "/>
<path style="fill:none;stroke-width:0.749409;stroke-linecap:butt;stroke-linejoin:round;stroke:rgb(0%,0%,0%);stroke-opacity:1;stroke-miterlimit:10;" d="M 354.3125 225.578125 L 354.199219 245.421875 "/>
<path style=" stroke:none;fill-rule:evenodd;fill:rgb(0%,0%,0%);fill-opacity:1;" d="M 359.179688 256.261719 C 358.835938 254.339844 357.726562 253.402344 355.820312 253.402344 C 354.632812 253.402344 353.695312 253.777344 353.039062 254.496094 C 352.257812 255.355469 351.820312 256.605469 351.820312 258.027344 C 351.820312 259.464844 352.257812 260.699219 353.085938 261.542969 C 353.757812 262.246094 354.632812 262.574219 355.773438 262.574219 C 357.898438 262.574219 359.101562 261.417969 359.367188 259.105469 L 358.210938 259.105469 C 358.117188 259.699219 357.992188 260.105469 357.820312 260.449219 C 357.460938 261.183594 356.710938 261.589844 355.773438 261.589844 C 354.039062 261.589844 352.929688 260.199219 352.929688 258.011719 C 352.929688 255.761719 353.992188 254.386719 355.679688 254.386719 C 356.382812 254.386719 357.054688 254.605469 357.414062 254.933594 C 357.726562 255.230469 357.914062 255.605469 358.039062 256.261719 Z M 359.90625 262.292969 "/>
<path style="fill:none;stroke-width:0.749409;stroke-linecap:round;stroke-linejoin:round;stroke:rgb(0%,0%,0%);stroke-opacity:1;stroke-miterlimit:10;" d="M 335.371094 275.789062 L 349.714844 262.066406 "/>
<path style="fill:none;stroke-width:0.749409;stroke-linecap:round;stroke-linejoin:round;stroke:rgb(0%,0%,0%);stroke-opacity:1;stroke-miterlimit:10;" d="M 375.679688 275.929688 L 361.535156 262.011719 "/>
<path style=" stroke:none;fill-rule:evenodd;fill:rgb(0%,0%,0%);fill-opacity:1;" d="M 326.226562 290.753906 L 329.101562 290.753906 C 330.101562 290.753906 330.539062 291.238281 330.539062 292.316406 L 330.539062 293.097656 C 330.539062 293.628906 330.632812 294.160156 330.789062 294.519531 L 332.132812 294.519531 L 332.132812 294.238281 C 331.726562 293.957031 331.632812 293.644531 331.617188 292.472656 C 331.601562 291.035156 331.367188 290.613281 330.429688 290.207031 C 331.414062 289.722656 331.804688 289.113281 331.804688 288.113281 C 331.804688 286.597656 330.851562 285.769531 329.132812 285.769531 L 325.101562 285.769531 L 325.101562 294.519531 L 326.226562 294.519531 Z M 326.226562 289.769531 L 326.226562 286.753906 L 328.929688 286.753906 C 329.554688 286.753906 329.914062 286.847656 330.179688 287.097656 C 330.476562 287.347656 330.632812 287.738281 330.632812 288.269531 C 330.632812 289.300781 330.117188 289.769531 328.929688 289.769531 Z M 332.65625 294.519531 "/>
<path style="fill:none;stroke-width:0.749409;stroke-linecap:round;stroke-linejoin:round;stroke:rgb(0%,0%,0%);stroke-opacity:1;stroke-miterlimit:10;" d="M 395.695312 276.894531 L 412.871094 266.972656 "/>
<path style=" stroke:none;fill-rule:evenodd;fill:rgb(0%,0%,0%);fill-opacity:1;" d="M 384.8125 273.636719 C 382.296875 273.636719 380.59375 275.480469 380.59375 278.214844 C 380.59375 280.949219 382.296875 282.808594 384.828125 282.808594 C 385.875 282.808594 386.828125 282.480469 387.53125 281.886719 C 388.484375 281.074219 389.046875 279.714844 389.046875 278.292969 C 389.046875 275.464844 387.375 273.636719 384.8125 273.636719 Z M 384.8125 274.621094 C 386.703125 274.621094 387.921875 276.058594 387.921875 278.261719 C 387.921875 280.386719 386.671875 281.824219 384.828125 281.824219 C 382.953125 281.824219 381.71875 280.386719 381.71875 278.214844 C 381.71875 276.058594 382.953125 274.621094 384.8125 274.621094 Z M 389.476562 282.527344 "/>
<path style=" stroke:none;fill-rule:evenodd;fill:rgb(0%,0%,0%);fill-opacity:1;" d="M 419.085938 267.910156 L 419.992188 270.535156 L 421.242188 270.535156 L 418.164062 261.785156 L 416.726562 261.785156 L 413.601562 270.535156 L 414.789062 270.535156 L 415.710938 267.910156 Z M 418.773438 266.972656 L 415.992188 266.972656 L 417.429688 262.988281 Z M 421.402344 270.535156 "/>
<path style=" stroke:none;fill-rule:evenodd;fill:rgb(0%,0%,0%);fill-opacity:1;" d="M 258.613281 358.011719 L 260.097656 356.527344 L 263.316406 361.214844 L 264.707031 361.214844 L 260.941406 355.808594 L 264.660156 352.074219 L 263.160156 352.074219 L 258.613281 356.699219 L 258.613281 352.074219 L 257.441406 352.074219 L 257.441406 361.214844 L 258.613281 361.214844 Z M 271.238281 358.277344 C 271.238281 357.277344 271.175781 356.683594 270.988281 356.183594 C 270.550781 355.105469 269.550781 354.464844 268.332031 354.464844 C 266.488281 354.464844 265.316406 355.871094 265.316406 358.011719 C 265.316406 360.167969 266.457031 361.496094 268.300781 361.496094 C 269.800781 361.496094 270.847656 360.652344 271.113281 359.214844 L 270.050781 359.214844 C 269.769531 360.089844 269.175781 360.542969 268.332031 360.542969 C 267.675781 360.542969 267.113281 360.230469 266.753906 359.683594 C 266.503906 359.308594 266.425781 358.933594 266.410156 358.277344 Z M 266.425781 357.433594 C 266.519531 356.214844 267.253906 355.417969 268.316406 355.417969 C 269.347656 355.417969 270.128906 356.277344 270.128906 357.355469 C 270.128906 357.386719 270.128906 357.402344 270.113281 357.433594 Z M 274.96875 354.652344 L 273.890625 354.652344 L 273.890625 352.839844 L 272.84375 352.839844 L 272.84375 354.652344 L 271.953125 354.652344 L 271.953125 355.496094 L 272.84375 355.496094 L 272.84375 360.464844 C 272.84375 361.121094 273.296875 361.496094 274.109375 361.496094 C 274.359375 361.496094 274.609375 361.480469 274.96875 361.417969 L 274.96875 360.542969 C 274.828125 360.574219 274.65625 360.589844 274.46875 360.589844 C 274.015625 360.589844 273.890625 360.464844 273.890625 359.996094 L 273.890625 355.496094 L 274.96875 355.496094 Z M 278.671875 354.464844 C 276.828125 354.464844 275.71875 355.777344 275.71875 357.980469 C 275.71875 360.183594 276.8125 361.496094 278.6875 361.496094 C 280.53125 361.496094 281.65625 360.183594 281.65625 358.027344 C 281.65625 355.761719 280.5625 354.464844 278.671875 354.464844 Z M 278.6875 355.417969 C 279.859375 355.417969 280.5625 356.386719 280.5625 358.011719 C 280.5625 359.558594 279.84375 360.542969 278.6875 360.542969 C 277.515625 360.542969 276.8125 359.574219 276.8125 357.980469 C 276.8125 356.402344 277.515625 355.417969 278.6875 355.417969 Z M 283.109375 354.652344 L 283.109375 361.214844 L 284.171875 361.214844 L 284.171875 357.589844 C 284.171875 356.246094 284.859375 355.371094 285.9375 355.371094 C 286.765625 355.371094 287.296875 355.871094 287.296875 356.667969 L 287.296875 361.214844 L 288.34375 361.214844 L 288.34375 356.246094 C 288.34375 355.167969 287.515625 354.464844 286.25 354.464844 C 285.28125 354.464844 284.65625 354.839844 284.078125 355.746094 L 284.078125 354.652344 Z M 295.625 358.277344 C 295.625 357.277344 295.5625 356.683594 295.375 356.183594 C 294.9375 355.105469 293.9375 354.464844 292.71875 354.464844 C 290.875 354.464844 289.703125 355.871094 289.703125 358.011719 C 289.703125 360.167969 290.84375 361.496094 292.6875 361.496094 C 294.1875 361.496094 295.234375 360.652344 295.5 359.214844 L 294.4375 359.214844 C 294.15625 360.089844 293.5625 360.542969 292.71875 360.542969 C 292.0625 360.542969 291.5 360.230469 291.140625 359.683594 C 290.890625 359.308594 290.8125 358.933594 290.796875 358.277344 Z M 290.8125 357.433594 C 290.90625 356.214844 291.640625 355.417969 292.703125 355.417969 C 293.734375 355.417969 294.515625 356.277344 294.515625 357.355469 C 294.515625 357.386719 294.515625 357.402344 294.5 357.433594 Z M 296.167969 361.214844 "/>
<path style=" stroke:none;fill-rule:evenodd;fill:rgb(0%,0%,0%);fill-opacity:1;" d="M 357.835938 303.613281 C 355.320312 303.613281 353.617188 305.457031 353.617188 308.191406 C 353.617188 310.925781 355.320312 312.785156 357.851562 312.785156 C 358.898438 312.785156 359.851562 312.457031 360.554688 311.863281 C 361.507812 311.050781 362.070312 309.691406 362.070312 308.269531 C 362.070312 305.441406 360.398438 303.613281 357.835938 303.613281 Z M 357.835938 304.597656 C 359.726562 304.597656 360.945312 306.035156 360.945312 308.238281 C 360.945312 310.363281 359.695312 311.800781 357.851562 311.800781 C 355.976562 311.800781 354.742188 310.363281 354.742188 308.191406 C 354.742188 306.035156 355.976562 304.597656 357.835938 304.597656 Z M 362.5 312.503906 "/>
<path style="fill:none;stroke-width:0.749409;stroke-linecap:butt;stroke-linejoin:round;stroke:rgb(0%,0%,0%);stroke-opacity:1;stroke-miterlimit:10;" d="M 359.546875 314.785156 L 359.433594 334.628906 "/>
<path style="fill:none;stroke-width:0.749409;stroke-linecap:butt;stroke-linejoin:round;stroke:rgb(0%,0%,0%);stroke-opacity:1;stroke-miterlimit:10;" d="M 356.546875 314.769531 L 356.433594 334.613281 "/>
<path style=" stroke:none;fill-rule:evenodd;fill:rgb(0%,0%,0%);fill-opacity:1;" d="M 361.429688 345.441406 C 361.085938 343.519531 359.976562 342.582031 358.070312 342.582031 C 356.882812 342.582031 355.945312 342.957031 355.289062 343.675781 C 354.507812 344.535156 354.070312 345.785156 354.070312 347.207031 C 354.070312 348.644531 354.507812 349.878906 355.335938 350.722656 C 356.007812 351.425781 356.882812 351.753906 358.023438 351.753906 C 360.148438 351.753906 361.351562 350.597656 361.617188 348.285156 L 360.460938 348.285156 C 360.367188 348.878906 360.242188 349.285156 360.070312 349.628906 C 359.710938 350.363281 358.960938 350.769531 358.023438 350.769531 C 356.289062 350.769531 355.179688 349.378906 355.179688 347.191406 C 355.179688 344.941406 356.242188 343.566406 357.929688 343.566406 C 358.632812 343.566406 359.304688 343.785156 359.664062 344.113281 C 359.976562 344.410156 360.164062 344.785156 360.289062 345.441406 Z M 362.15625 351.472656 "/>
<path style="fill:none;stroke-width:0.749409;stroke-linecap:round;stroke-linejoin:round;stroke:rgb(0%,0%,0%);stroke-opacity:1;stroke-miterlimit:10;" d="M 337.609375 364.980469 L 351.953125 351.257812 "/>
<path style="fill:none;stroke-width:0.749409;stroke-linecap:round;stroke-linejoin:round;stroke:rgb(0%,0%,0%);stroke-opacity:1;stroke-miterlimit:10;" d="M 377.179688 365.121094 L 363.035156 351.203125 "/>
<path style=" stroke:none;fill-rule:evenodd;fill:rgb(0%,0%,0%);fill-opacity:1;" d="M 328.472656 379.933594 L 331.347656 379.933594 C 332.347656 379.933594 332.785156 380.417969 332.785156 381.496094 L 332.785156 382.277344 C 332.785156 382.808594 332.878906 383.339844 333.035156 383.699219 L 334.378906 383.699219 L 334.378906 383.417969 C 333.972656 383.136719 333.878906 382.824219 333.863281 381.652344 C 333.847656 380.214844 333.613281 379.792969 332.675781 379.386719 C 333.660156 378.902344 334.050781 378.292969 334.050781 377.292969 C 334.050781 375.777344 333.097656 374.949219 331.378906 374.949219 L 327.347656 374.949219 L 327.347656 383.699219 L 328.472656 383.699219 Z M 328.472656 378.949219 L 328.472656 375.933594 L 331.175781 375.933594 C 331.800781 375.933594 332.160156 376.027344 332.425781 376.277344 C 332.722656 376.527344 332.878906 376.917969 332.878906 377.449219 C 332.878906 378.480469 332.363281 378.949219 331.175781 378.949219 Z M 334.902344 383.699219 "/>
<path style=" stroke:none;fill-rule:evenodd;fill:rgb(0%,0%,0%);fill-opacity:1;" d="M 376.4375 382.179688 L 379.3125 382.179688 C 380.3125 382.179688 380.75 382.664062 380.75 383.742188 L 380.75 384.523438 C 380.75 385.054688 380.84375 385.585938 381 385.945312 L 382.34375 385.945312 L 382.34375 385.664062 C 381.9375 385.382812 381.84375 385.070312 381.828125 383.898438 C 381.8125 382.460938 381.578125 382.039062 380.640625 381.632812 C 381.625 381.148438 382.015625 380.539062 382.015625 379.539062 C 382.015625 378.023438 381.0625 377.195312 379.34375 377.195312 L 375.3125 377.195312 L 375.3125 385.945312 L 376.4375 385.945312 Z M 376.4375 381.195312 L 376.4375 378.179688 L 379.140625 378.179688 C 379.765625 378.179688 380.125 378.273438 380.390625 378.523438 C 380.6875 378.773438 380.84375 379.164062 380.84375 379.695312 C 380.84375 380.726562 380.328125 381.195312 379.140625 381.195312 Z M 382.867188 385.945312 "/>
<path style=" stroke:none;fill-rule:evenodd;fill:rgb(0%,0%,0%);fill-opacity:1;" d="M 263.707031 442.878906 L 262.613281 442.878906 L 262.613281 450.253906 L 257.910156 442.878906 L 256.660156 442.878906 L 256.660156 451.894531 L 257.753906 451.894531 L 257.753906 444.597656 L 262.410156 451.894531 L 263.707031 451.894531 Z M 267.035156 442.878906 L 265.878906 442.878906 L 265.878906 451.894531 L 267.035156 451.894531 Z M 271.222656 445.425781 L 270.160156 445.425781 L 270.160156 443.644531 L 269.128906 443.644531 L 269.128906 445.425781 L 268.253906 445.425781 L 268.253906 446.253906 L 269.128906 446.253906 L 269.128906 451.160156 C 269.128906 451.800781 269.582031 452.175781 270.378906 452.175781 C 270.628906 452.175781 270.878906 452.160156 271.222656 452.097656 L 271.222656 451.222656 C 271.082031 451.269531 270.925781 451.269531 270.722656 451.269531 C 270.285156 451.269531 270.160156 451.160156 270.160156 450.691406 L 270.160156 446.253906 L 271.222656 446.253906 Z M 272.378906 445.425781 L 272.378906 451.894531 L 273.410156 451.894531 L 273.410156 448.535156 C 273.410156 447.613281 273.644531 447.003906 274.144531 446.644531 C 274.457031 446.410156 274.769531 446.332031 275.488281 446.316406 L 275.488281 445.269531 C 275.316406 445.238281 275.222656 445.238281 275.097656 445.238281 C 274.425781 445.238281 273.910156 445.628906 273.316406 446.597656 L 273.316406 445.425781 Z M 277.492188 445.425781 L 276.460938 445.425781 L 276.460938 451.894531 L 277.492188 451.894531 Z M 277.492188 442.878906 L 276.445312 442.878906 L 276.445312 444.175781 L 277.492188 444.175781 Z M 281.519531 445.425781 L 280.457031 445.425781 L 280.457031 443.644531 L 279.425781 443.644531 L 279.425781 445.425781 L 278.550781 445.425781 L 278.550781 446.253906 L 279.425781 446.253906 L 279.425781 451.160156 C 279.425781 451.800781 279.878906 452.175781 280.675781 452.175781 C 280.925781 452.175781 281.175781 452.160156 281.519531 452.097656 L 281.519531 451.222656 C 281.378906 451.269531 281.222656 451.269531 281.019531 451.269531 C 280.582031 451.269531 280.457031 451.160156 280.457031 450.691406 L 280.457031 446.253906 L 281.519531 446.253906 Z M 288.15625 449.003906 C 288.15625 448.019531 288.078125 447.425781 287.890625 446.941406 C 287.46875 445.878906 286.484375 445.238281 285.265625 445.238281 C 283.46875 445.238281 282.3125 446.613281 282.3125 448.738281 C 282.3125 450.863281 283.4375 452.175781 285.25 452.175781 C 286.734375 452.175781 287.75 451.332031 288.015625 449.925781 L 286.984375 449.925781 C 286.6875 450.785156 286.109375 451.222656 285.28125 451.222656 C 284.625 451.222656 284.078125 450.925781 283.734375 450.378906 C 283.484375 450.019531 283.390625 449.644531 283.375 449.003906 Z M 283.40625 448.160156 C 283.5 446.957031 284.21875 446.191406 285.265625 446.191406 C 286.28125 446.191406 287.046875 447.019531 287.046875 448.082031 C 287.046875 448.113281 287.046875 448.144531 287.046875 448.160156 Z M 288.683594 451.894531 "/>
<path style=" stroke:none;fill-rule:evenodd;fill:rgb(0%,0%,0%);fill-opacity:1;" d="M 297 447.378906 L 299.875 447.378906 C 300.875 447.378906 301.3125 447.863281 301.3125 448.941406 L 301.3125 449.722656 C 301.3125 450.253906 301.40625 450.785156 301.5625 451.144531 L 302.90625 451.144531 L 302.90625 450.863281 C 302.5 450.582031 302.40625 450.269531 302.390625 449.097656 C 302.375 447.660156 302.140625 447.238281 301.203125 446.832031 C 302.1875 446.347656 302.578125 445.738281 302.578125 444.738281 C 302.578125 443.222656 301.625 442.394531 299.90625 442.394531 L 295.875 442.394531 L 295.875 451.144531 L 297 451.144531 Z M 297 446.394531 L 297 443.378906 L 299.703125 443.378906 C 300.328125 443.378906 300.6875 443.472656 300.953125 443.722656 C 301.25 443.972656 301.40625 444.363281 301.40625 444.894531 C 301.40625 445.925781 300.890625 446.394531 299.703125 446.394531 Z M 303.429688 451.144531 "/>
<path style="fill:none;stroke-width:0.749409;stroke-linecap:round;stroke-linejoin:round;stroke:rgb(0%,0%,0%);stroke-opacity:1;stroke-miterlimit:10;" d="M 307.238281 445.167969 L 327.082031 445.167969 "/>
<path style=" stroke:none;fill-rule:evenodd;fill:rgb(0%,0%,0%);fill-opacity:1;" d="M 344.191406 445.113281 C 343.847656 443.191406 342.738281 442.253906 340.832031 442.253906 C 339.644531 442.253906 338.707031 442.628906 338.050781 443.347656 C 337.269531 444.207031 336.832031 445.457031 336.832031 446.878906 C 336.832031 448.316406 337.269531 449.550781 338.097656 450.394531 C 338.769531 451.097656 339.644531 451.425781 340.785156 451.425781 C 342.910156 451.425781 344.113281 450.269531 344.378906 447.957031 L 343.222656 447.957031 C 343.128906 448.550781 343.003906 448.957031 342.832031 449.300781 C 342.472656 450.035156 341.722656 450.441406 340.785156 450.441406 C 339.050781 450.441406 337.941406 449.050781 337.941406 446.863281 C 337.941406 444.613281 339.003906 443.238281 340.691406 443.238281 C 341.394531 443.238281 342.066406 443.457031 342.425781 443.785156 C 342.738281 444.082031 342.925781 444.457031 343.050781 445.113281 Z M 344.917969 451.144531 "/>
<path style="fill:none;stroke-width:0.749409;stroke-linecap:butt;stroke-linejoin:round;stroke:rgb(0%,0%,0%);stroke-opacity:1;stroke-miterlimit:10;" d="M 349.84375 441.671875 L 364.726562 441.609375 "/>
<path style="fill:none;stroke-width:0.749409;stroke-linecap:butt;stroke-linejoin:round;stroke:rgb(0%,0%,0%);stroke-opacity:1;stroke-miterlimit:10;" d="M 349.871094 448.417969 L 364.753906 448.355469 "/>
<path style="fill:none;stroke-width:0.749409;stroke-linecap:round;stroke-linejoin:round;stroke:rgb(0%,0%,0%);stroke-opacity:1;stroke-miterlimit:10;" d="M 347.378906 445.054688 L 367.21875 444.972656 "/>
<path style=" stroke:none;fill-rule:evenodd;fill:rgb(0%,0%,0%);fill-opacity:1;" d="M 380 442.394531 L 378.953125 442.394531 L 378.953125 449.550781 L 374.375 442.394531 L 373.15625 442.394531 L 373.15625 451.144531 L 374.21875 451.144531 L 374.21875 444.050781 L 378.734375 451.144531 L 380 451.144531 Z M 380.914062 451.144531 "/>
<path style=" stroke:none;fill-rule:evenodd;fill:rgb(0%,0%,0%);fill-opacity:1;" d="M 261.703125 502.582031 L 264.5625 502.582031 L 264.5625 501.597656 L 257.703125 501.597656 L 257.703125 502.582031 L 260.578125 502.582031 L 260.578125 510.347656 L 261.703125 510.347656 Z M 265.628906 501.597656 L 265.628906 510.347656 L 266.628906 510.347656 L 266.628906 506.878906 C 266.628906 505.597656 267.300781 504.753906 268.332031 504.753906 C 268.644531 504.753906 268.972656 504.863281 269.207031 505.050781 C 269.503906 505.253906 269.628906 505.550781 269.628906 505.988281 L 269.628906 510.347656 L 270.613281 510.347656 L 270.613281 505.597656 C 270.613281 504.535156 269.863281 503.878906 268.644531 503.878906 C 267.753906 503.878906 267.207031 504.160156 266.628906 504.925781 L 266.628906 501.597656 Z M 273.253906 504.066406 L 272.253906 504.066406 L 272.253906 510.347656 L 273.253906 510.347656 Z M 273.253906 501.597656 L 272.253906 501.597656 L 272.253906 502.863281 L 273.253906 502.863281 Z M 277.386719 503.878906 C 275.621094 503.878906 274.558594 505.144531 274.558594 507.253906 C 274.558594 509.363281 275.605469 510.628906 277.402344 510.628906 C 279.167969 510.628906 280.246094 509.363281 280.246094 507.300781 C 280.246094 505.128906 279.199219 503.878906 277.386719 503.878906 Z M 277.402344 504.800781 C 278.527344 504.800781 279.199219 505.722656 279.199219 507.285156 C 279.199219 508.769531 278.496094 509.707031 277.402344 509.707031 C 276.277344 509.707031 275.589844 508.769531 275.589844 507.253906 C 275.589844 505.738281 276.277344 504.800781 277.402344 504.800781 Z M 282.621094 501.597656 L 281.605469 501.597656 L 281.605469 510.347656 L 282.621094 510.347656 Z M 283.457031 510.347656 "/>
<path style=" stroke:none;fill-rule:evenodd;fill:rgb(0%,0%,0%);fill-opacity:1;" d="M 311.238281 505.082031 L 314.113281 505.082031 C 315.113281 505.082031 315.550781 505.566406 315.550781 506.644531 L 315.550781 507.425781 C 315.550781 507.957031 315.644531 508.488281 315.800781 508.847656 L 317.144531 508.847656 L 317.144531 508.566406 C 316.738281 508.285156 316.644531 507.972656 316.628906 506.800781 C 316.613281 505.363281 316.378906 504.941406 315.441406 504.535156 C 316.425781 504.050781 316.816406 503.441406 316.816406 502.441406 C 316.816406 500.925781 315.863281 500.097656 314.144531 500.097656 L 310.113281 500.097656 L 310.113281 508.847656 L 311.238281 508.847656 Z M 311.238281 504.097656 L 311.238281 501.082031 L 313.941406 501.082031 C 314.566406 501.082031 314.925781 501.175781 315.191406 501.425781 C 315.488281 501.675781 315.644531 502.066406 315.644531 502.597656 C 315.644531 503.628906 315.128906 504.097656 313.941406 504.097656 Z M 317.667969 508.847656 "/>
<path style="fill:none;stroke-width:0.749409;stroke-linecap:round;stroke-linejoin:round;stroke:rgb(0%,0%,0%);stroke-opacity:1;stroke-miterlimit:10;" d="M 318.113281 504.363281 L 337.957031 504.363281 "/>
<path style=" stroke:none;fill-rule:evenodd;fill:rgb(0%,0%,0%);fill-opacity:1;" d="M 353.46875 503.410156 C 353.453125 501.707031 352.28125 500.707031 350.265625 500.707031 C 348.34375 500.707031 347.15625 501.691406 347.15625 503.269531 C 347.15625 504.347656 347.71875 505.019531 348.875 505.316406 L 351.046875 505.894531 C 352.140625 506.175781 352.65625 506.628906 352.65625 507.300781 C 352.65625 507.769531 352.390625 508.253906 352.03125 508.519531 C 351.671875 508.753906 351.125 508.894531 350.421875 508.894531 C 349.46875 508.894531 348.828125 508.660156 348.40625 508.160156 C 348.078125 507.769531 347.9375 507.347656 347.9375 506.816406 L 346.890625 506.816406 C 346.90625 507.613281 347.0625 508.144531 347.40625 508.628906 C 348 509.441406 349.015625 509.878906 350.34375 509.878906 C 351.390625 509.878906 352.234375 509.628906 352.796875 509.207031 C 353.390625 508.738281 353.765625 507.957031 353.765625 507.191406 C 353.765625 506.113281 353.09375 505.332031 351.90625 505.003906 L 349.703125 504.410156 C 348.65625 504.128906 348.265625 503.785156 348.265625 503.113281 C 348.265625 502.222656 349.046875 501.644531 350.21875 501.644531 C 351.609375 501.644531 352.390625 502.285156 352.40625 503.410156 Z M 360.925781 505.613281 L 360.925781 509.597656 L 362.050781 509.597656 L 362.050781 500.847656 L 360.925781 500.847656 L 360.925781 504.628906 L 356.425781 504.628906 L 356.425781 500.847656 L 355.316406 500.847656 L 355.316406 509.597656 L 356.441406 509.597656 L 356.441406 505.613281 Z M 362.980469 509.597656 "/>
</g>
</svg>
